<?xml version="1.0" encoding="utf-8" standalone="no"?>
<!DOCTYPE svg PUBLIC "-//W3C//DTD SVG 1.1//EN"
  "http://www.w3.org/Graphics/SVG/1.1/DTD/svg11.dtd">
<svg xmlns:xlink="http://www.w3.org/1999/xlink" width="432pt" height="216pt" viewBox="0 0 432 216" xmlns="http://www.w3.org/2000/svg" version="1.1">
 <metadata>
  <rdf:RDF xmlns:dc="http://purl.org/dc/elements/1.1/" xmlns:cc="http://creativecommons.org/ns#" xmlns:rdf="http://www.w3.org/1999/02/22-rdf-syntax-ns#">
   <cc:Work>
    <dc:type rdf:resource="http://purl.org/dc/dcmitype/StillImage"/>
    <dc:date>2025-04-13T13:45:39.668783</dc:date>
    <dc:format>image/svg+xml</dc:format>
    <dc:creator>
     <cc:Agent>
      <dc:title>Matplotlib v3.9.1, https://matplotlib.org/</dc:title>
     </cc:Agent>
    </dc:creator>
   </cc:Work>
  </rdf:RDF>
 </metadata>
 <defs>
  <style type="text/css">*{stroke-linejoin: round; stroke-linecap: butt}</style>
 </defs>
 <g id="figure_1">
  <g id="patch_1">
   <path d="M 0 216 
L 432 216 
L 432 0 
L 0 0 
z
" style="fill: #ffffff"/>
  </g>
  <g id="axes_1">
   <g id="patch_2">
    <path d="M 63.68 168.28 
L 421.2 168.28 
L 421.2 10.8 
L 63.68 10.8 
z
" style="fill: #ffffff"/>
   </g>
   <g id="PolyCollection_1">
    <defs>
     <path id="m2f63d4f2c7" d="M 79.930909 -165.551935 
L 79.930909 -146.937799 
L 81.564166 -159.750845 
L 83.197423 -162.372594 
L 84.830681 -158.576764 
L 86.463938 -167.42057 
L 88.097195 -164.864198 
L 89.730452 -168.199017 
L 91.363709 -165.25936 
L 92.996967 -167.862999 
L 94.630224 -170.151386 
L 96.263481 -168.003246 
L 97.896738 -169.877236 
L 99.529995 -165.300755 
L 101.163253 -168.755348 
L 102.79651 -169.266146 
L 104.429767 -167.523225 
L 106.063024 -168.420793 
L 107.696281 -169.86457 
L 109.329539 -169.033458 
L 110.962796 -166.804036 
L 112.596053 -165.301542 
L 114.22931 -165.345906 
L 115.862567 -169.830802 
L 117.495825 -169.197192 
L 119.129082 -168.688824 
L 120.762339 -170.014919 
L 122.395596 -170.830417 
L 124.028853 -170.518382 
L 125.662111 -171.040946 
L 127.295368 -171.139978 
L 128.928625 -170.45719 
L 130.561882 -172.062946 
L 132.195139 -170.149384 
L 133.828397 -169.404076 
L 135.461654 -169.507293 
L 137.094911 -169.473367 
L 138.728168 -169.560814 
L 140.361425 -171.210957 
L 141.994683 -170.862386 
L 143.62794 -171.670708 
L 145.261197 -172.579525 
L 146.894454 -171.143488 
L 148.527711 -172.177051 
L 150.160968 -171.47631 
L 151.794226 -172.093115 
L 153.427483 -172.295341 
L 155.06074 -173.015632 
L 156.693997 -172.804137 
L 158.327254 -173.093315 
L 159.960512 -172.849941 
L 161.593769 -172.15208 
L 163.227026 -172.778063 
L 164.860283 -173.165013 
L 166.49354 -172.419908 
L 168.126798 -172.419908 
L 169.760055 -172.419908 
L 171.393312 -172.378401 
L 173.026569 -173.192482 
L 174.659826 -172.752573 
L 176.293084 -173.072865 
L 177.926341 -173.339231 
L 179.559598 -173.948116 
L 181.192855 -173.753246 
L 182.826112 -173.338039 
L 184.45937 -173.106408 
L 186.092627 -173.110953 
L 187.725884 -173.164631 
L 189.359141 -173.917543 
L 190.992398 -173.224496 
L 192.625656 -173.817273 
L 194.258913 -173.224496 
L 195.89217 -173.264158 
L 197.525427 -173.114192 
L 199.158684 -173.790367 
L 200.791942 -173.940332 
L 202.425199 -173.630682 
L 204.058456 -173.067713 
L 205.691713 -173.565733 
L 207.32497 -173.64553 
L 208.958228 -173.64553 
L 210.591485 -173.64553 
L 212.224742 -173.64553 
L 213.857999 -173.674821 
L 215.491256 -173.68121 
L 217.124513 -174.276327 
L 218.757771 -173.68355 
L 220.391028 -173.68355 
L 222.024285 -173.68355 
L 223.657542 -174.276327 
L 225.290799 -173.68355 
L 226.924057 -174.276327 
L 228.557314 -174.247036 
L 230.190571 -174.247036 
L 231.823828 -174.247036 
L 233.457085 -174.247036 
L 235.090343 -173.656329 
L 236.7236 -174.234753 
L 238.356857 -174.249106 
L 239.990114 -174.249106 
L 241.623371 -174.244449 
L 243.256629 -174.244449 
L 244.889886 -174.254865 
L 246.523143 -174.254865 
L 248.1564 -174.249106 
L 249.789657 -174.243054 
L 251.422915 -174.243054 
L 253.056172 -174.243054 
L 254.689429 -174.243054 
L 256.322686 -174.243054 
L 257.955943 -174.240984 
L 259.589201 -174.240984 
L 261.222458 -174.240984 
L 262.855715 -174.270276 
L 264.488972 -174.270276 
L 266.122229 -174.267936 
L 267.755487 -174.267936 
L 269.388744 -174.267936 
L 271.022001 -174.267936 
L 272.655258 -174.267936 
L 274.288515 -174.267936 
L 275.921772 -174.267936 
L 277.55503 -174.224291 
L 279.188287 -174.224291 
L 280.821544 -174.224291 
L 282.454801 -174.224291 
L 284.088058 -174.224291 
L 285.721316 -174.230343 
L 287.354573 -174.230343 
L 288.98783 -174.230343 
L 290.621087 -174.230343 
L 292.254344 -174.230343 
L 293.887602 -174.230343 
L 295.520859 -174.224291 
L 297.154116 -174.224291 
L 298.787373 -174.244696 
L 300.42063 -174.238645 
L 302.053888 -174.238645 
L 303.687145 -174.238645 
L 305.320402 -174.224291 
L 306.953659 -174.238645 
L 308.586916 -174.238645 
L 310.220174 -174.238645 
L 311.853431 -174.224291 
L 313.486688 -174.224291 
L 315.119945 -174.233988 
L 316.753202 -174.233988 
L 318.38646 -174.233988 
L 320.019717 -174.339184 
L 321.652974 -174.339184 
L 323.286231 -174.339184 
L 324.919488 -174.238645 
L 326.552746 -174.244696 
L 328.186003 -174.244696 
L 329.81926 -174.238645 
L 331.452517 -174.244696 
L 333.085774 -174.240039 
L 334.719032 -174.240039 
L 336.352289 -174.233988 
L 337.985546 -174.240039 
L 339.618803 -174.240039 
L 341.25206 -174.244449 
L 342.885317 -174.244449 
L 344.518575 -174.240039 
L 346.151832 -174.240039 
L 347.785089 -174.240039 
L 349.418346 -174.240039 
L 351.051603 -174.240039 
L 352.684861 -174.244696 
L 354.318118 -174.244696 
L 355.951375 -174.244696 
L 357.584632 -174.244696 
L 359.217889 -174.244696 
L 360.851147 -174.244696 
L 362.484404 -174.244696 
L 364.117661 -174.244696 
L 365.750918 -174.244696 
L 367.384175 -174.244696 
L 369.017433 -174.244696 
L 370.65069 -174.244696 
L 372.283947 -174.244696 
L 373.917204 -174.244696 
L 375.550461 -174.238645 
L 377.183719 -174.244696 
L 378.816976 -174.244696 
L 380.450233 -174.244696 
L 382.08349 -174.244696 
L 383.716747 -174.244696 
L 385.350005 -174.244696 
L 386.983262 -174.244696 
L 388.616519 -174.244696 
L 390.249776 -174.244696 
L 391.883033 -174.244696 
L 393.516291 -174.244696 
L 395.149548 -174.244696 
L 396.782805 -174.244696 
L 398.416062 -174.244696 
L 400.049319 -174.244696 
L 401.682577 -174.244696 
L 403.315834 -174.244696 
L 404.949091 -174.244696 
L 404.949091 -176.155829 
L 404.949091 -176.155829 
L 403.315834 -176.155829 
L 401.682577 -176.155829 
L 400.049319 -176.155829 
L 398.416062 -176.155829 
L 396.782805 -176.155829 
L 395.149548 -176.155829 
L 393.516291 -176.155829 
L 391.883033 -176.155829 
L 390.249776 -176.155829 
L 388.616519 -176.155829 
L 386.983262 -176.155829 
L 385.350005 -176.155829 
L 383.716747 -176.155829 
L 382.08349 -176.155829 
L 380.450233 -176.155829 
L 378.816976 -176.155829 
L 377.183719 -176.155829 
L 375.550461 -176.150002 
L 373.917204 -176.155829 
L 372.283947 -176.155829 
L 370.65069 -176.155829 
L 369.017433 -176.155829 
L 367.384175 -176.155829 
L 365.750918 -176.155829 
L 364.117661 -176.155829 
L 362.484404 -176.155829 
L 360.851147 -176.155829 
L 359.217889 -176.155829 
L 357.584632 -176.155829 
L 355.951375 -176.155829 
L 354.318118 -176.155829 
L 352.684861 -176.155829 
L 351.051603 -176.154996 
L 349.418346 -176.154996 
L 347.785089 -176.154996 
L 346.151832 -176.154996 
L 344.518575 -176.154996 
L 342.885317 -176.155131 
L 341.25206 -176.155131 
L 339.618803 -176.154996 
L 337.985546 -176.154996 
L 336.352289 -176.149169 
L 334.719032 -176.154996 
L 333.085774 -176.154996 
L 331.452517 -176.155829 
L 329.81926 -176.150002 
L 328.186003 -176.155829 
L 326.552746 -176.155829 
L 324.919488 -176.150002 
L 323.286231 -176.22242 
L 321.652974 -176.22242 
L 320.019717 -176.22242 
L 318.38646 -176.149169 
L 316.753202 -176.149169 
L 315.119945 -176.149169 
L 313.486688 -176.144648 
L 311.853431 -176.144648 
L 310.220174 -176.150002 
L 308.586916 -176.150002 
L 306.953659 -176.150002 
L 305.320402 -176.144648 
L 303.687145 -176.150002 
L 302.053888 -176.150002 
L 300.42063 -176.150002 
L 298.787373 -176.155829 
L 297.154116 -176.144648 
L 295.520859 -176.144648 
L 293.887602 -176.150474 
L 292.254344 -176.150474 
L 290.621087 -176.150474 
L 288.98783 -176.150474 
L 287.354573 -176.150474 
L 285.721316 -176.150474 
L 284.088058 -176.144648 
L 282.454801 -176.144648 
L 280.821544 -176.144648 
L 279.188287 -176.144648 
L 277.55503 -176.144648 
L 275.921772 -176.160621 
L 274.288515 -176.160621 
L 272.655258 -176.160621 
L 271.022001 -176.160621 
L 269.388744 -176.160621 
L 267.755487 -176.160621 
L 266.122229 -176.160621 
L 264.488972 -176.16251 
L 262.855715 -176.16251 
L 261.222458 -176.151892 
L 259.589201 -176.151892 
L 257.955943 -176.151892 
L 256.322686 -176.150137 
L 254.689429 -176.150137 
L 253.056172 -176.150137 
L 251.422915 -176.150137 
L 249.789657 -176.150137 
L 248.1564 -176.155964 
L 246.523143 -176.157223 
L 244.889886 -176.157223 
L 243.256629 -176.155131 
L 241.623371 -176.155131 
L 239.990114 -176.155964 
L 238.356857 -176.155964 
L 236.7236 -176.150609 
L 235.090343 -176.000981 
L 233.457085 -176.157718 
L 231.823828 -176.157718 
L 230.190571 -176.157718 
L 228.557314 -176.157718 
L 226.924057 -176.168337 
L 225.290799 -176.013354 
L 223.657542 -176.168337 
L 222.024285 -176.013354 
L 220.391028 -176.013354 
L 218.757771 -176.013354 
L 217.124513 -176.168337 
L 215.491256 -176.011464 
L 213.857999 -176.0044 
L 212.224742 -175.993782 
L 210.591485 -175.993782 
L 208.958228 -175.993782 
L 207.32497 -175.993782 
L 205.691713 -175.922758 
L 204.058456 -176.034412 
L 202.425199 -175.959586 
L 200.791942 -176.134929 
L 199.158684 -176.156391 
L 197.525427 -175.973129 
L 195.89217 -176.229732 
L 194.258913 -176.168022 
L 192.625656 -176.323005 
L 190.992398 -176.168022 
L 189.359141 -176.393128 
L 187.725884 -176.234141 
L 186.092627 -176.254254 
L 184.45937 -176.263657 
L 182.826112 -176.263792 
L 181.192855 -176.466402 
L 179.559598 -176.47567 
L 177.926341 -176.253286 
L 176.293084 -176.327752 
L 174.659826 -176.232206 
L 173.026569 -176.106087 
L 171.393312 -175.65601 
L 169.760055 -175.696842 
L 168.126798 -175.696842 
L 166.49354 -175.696842 
L 164.860283 -176.18683 
L 163.227026 -175.956234 
L 161.593769 -175.662534 
L 159.960512 -175.762871 
L 158.327254 -175.712657 
L 156.693997 -175.823028 
L 155.06074 -175.834524 
L 153.427483 -175.631893 
L 151.794226 -175.546426 
L 150.160968 -175.074953 
L 148.527711 -175.459835 
L 146.894454 -175.038193 
L 145.261197 -175.676482 
L 143.62794 -175.638079 
L 141.994683 -174.773964 
L 140.361425 -175.262692 
L 138.728168 -174.083639 
L 137.094911 -173.992143 
L 135.461654 -174.02022 
L 133.828397 -174.112953 
L 132.195139 -174.955899 
L 130.561882 -175.059565 
L 128.928625 -174.965842 
L 127.295368 -175.171916 
L 125.662111 -174.90303 
L 124.028853 -174.611737 
L 122.395596 -174.515224 
L 120.762339 -174.17734 
L 119.129082 -173.505238 
L 117.495825 -173.805732 
L 115.862567 -174.118982 
L 114.22931 -170.218338 
L 112.596053 -170.243714 
L 110.962796 -171.185355 
L 109.329539 -173.527262 
L 107.696281 -173.694934 
L 106.063024 -173.183889 
L 104.429767 -172.739413 
L 102.79651 -173.693809 
L 101.163253 -173.118669 
L 99.529995 -170.943038 
L 97.896738 -174.010411 
L 96.263481 -172.437883 
L 94.630224 -174.089961 
L 92.996967 -172.525082 
L 91.363709 -171.628751 
L 89.730452 -173.141414 
L 88.097195 -170.442139 
L 86.463938 -172.824609 
L 84.830681 -170.422184 
L 83.197423 -167.836925 
L 81.564166 -165.596052 
L 79.930909 -165.551935 
z
" style="stroke: #ff7c00; stroke-opacity: 0.5"/>
    </defs>
    <g clip-path="url(#p12f60db6bc)">
     <use xlink:href="#m2f63d4f2c7" x="0" y="216" style="fill: #ff7c00; fill-opacity: 0.5; stroke: #ff7c00; stroke-opacity: 0.5"/>
    </g>
   </g>
   <g id="PolyCollection_2">
    <defs>
     <path id="maecc1d5d5a" d="M 79.930909 -146.775617 
L 79.930909 -93.542428 
L 81.564166 -128.666092 
L 83.197423 -122.955508 
L 84.830681 -136.801194 
L 86.463938 -140.538667 
L 88.097195 -140.529893 
L 89.730452 -135.946775 
L 91.363709 -138.794059 
L 92.996967 -143.783137 
L 94.630224 -139.035003 
L 96.263481 -132.031125 
L 97.896738 -132.130652 
L 99.529995 -139.995721 
L 101.163253 -128.780828 
L 102.79651 -133.597489 
L 104.429767 -143.357042 
L 106.063024 -127.666342 
L 107.696281 -119.61133 
L 109.329539 -104.579234 
L 110.962796 -113.467788 
L 112.596053 -110.87002 
L 114.22931 -129.088364 
L 115.862567 -135.382209 
L 117.495825 -127.181573 
L 119.129082 -126.279978 
L 120.762339 -123.636541 
L 122.395596 -116.382607 
L 124.028853 -135.488463 
L 125.662111 -131.421362 
L 127.295368 -129.090996 
L 128.928625 -131.22242 
L 130.561882 -135.207362 
L 132.195139 -137.083826 
L 133.828397 -137.216626 
L 135.461654 -146.945966 
L 137.094911 -145.399175 
L 138.728168 -139.447713 
L 140.361425 -145.274653 
L 141.994683 -137.176312 
L 143.62794 -145.126239 
L 145.261197 -132.406422 
L 146.894454 -134.326576 
L 148.527711 -130.79259 
L 150.160968 -132.112025 
L 151.794226 -116.119571 
L 153.427483 -123.007318 
L 155.06074 -122.42228 
L 156.693997 -137.44171 
L 158.327254 -144.091596 
L 159.960512 -147.750149 
L 161.593769 -139.936239 
L 163.227026 -147.229317 
L 164.860283 -139.464361 
L 166.49354 -140.633807 
L 168.126798 -141.332006 
L 169.760055 -138.019077 
L 171.393312 -147.855255 
L 173.026569 -149.780066 
L 174.659826 -150.601212 
L 176.293084 -151.04364 
L 177.926341 -149.072013 
L 179.559598 -147.814715 
L 181.192855 -151.849601 
L 182.826112 -151.294641 
L 184.45937 -140.416867 
L 186.092627 -150.929962 
L 187.725884 -147.728844 
L 189.359141 -145.923336 
L 190.992398 -147.752376 
L 192.625656 -151.396238 
L 194.258913 -150.887668 
L 195.89217 -150.648388 
L 197.525427 -155.75029 
L 199.158684 -155.934609 
L 200.791942 -154.463656 
L 202.425199 -152.018329 
L 204.058456 -152.103953 
L 205.691713 -150.131246 
L 207.32497 -149.993811 
L 208.958228 -153.678258 
L 210.591485 -153.225323 
L 212.224742 -152.488924 
L 213.857999 -152.488924 
L 215.491256 -152.488924 
L 217.124513 -152.432119 
L 218.757771 -152.488924 
L 220.391028 -152.488924 
L 222.024285 -149.579256 
L 223.657542 -153.112005 
L 225.290799 -153.03619 
L 226.924057 -153.704692 
L 228.557314 -153.222804 
L 230.190571 -155.173598 
L 231.823828 -150.441774 
L 233.457085 -153.44728 
L 235.090343 -155.036478 
L 236.7236 -155.345004 
L 238.356857 -158.657708 
L 239.990114 -155.39479 
L 241.623371 -157.840342 
L 243.256629 -158.283108 
L 244.889886 -162.555653 
L 246.523143 -169.01564 
L 248.1564 -167.459761 
L 249.789657 -164.23529 
L 251.422915 -169.240229 
L 253.056172 -168.421828 
L 254.689429 -167.514564 
L 256.322686 -165.329281 
L 257.955943 -167.374541 
L 259.589201 -166.258301 
L 261.222458 -166.712788 
L 262.855715 -169.651095 
L 264.488972 -168.453459 
L 266.122229 -168.396474 
L 267.755487 -168.849949 
L 269.388744 -170.343264 
L 271.022001 -170.285244 
L 272.655258 -170.020475 
L 274.288515 -167.138524 
L 275.921772 -169.736471 
L 277.55503 -168.86248 
L 279.188287 -168.360389 
L 280.821544 -169.595212 
L 282.454801 -169.433322 
L 284.088058 -169.347518 
L 285.721316 -169.748327 
L 287.354573 -169.748327 
L 288.98783 -169.748327 
L 290.621087 -169.897978 
L 292.254344 -169.847877 
L 293.887602 -170.362769 
L 295.520859 -170.301172 
L 297.154116 -170.368731 
L 298.787373 -170.853455 
L 300.42063 -170.490216 
L 302.053888 -170.853455 
L 303.687145 -170.820406 
L 305.320402 -170.4007 
L 306.953659 -169.885807 
L 308.586916 -169.885807 
L 310.220174 -170.4007 
L 311.853431 -170.4007 
L 313.486688 -170.4007 
L 315.119945 -170.4007 
L 316.753202 -170.816064 
L 318.38646 -170.4007 
L 320.019717 -170.678584 
L 321.652974 -170.816064 
L 323.286231 -170.816064 
L 324.919488 -170.848618 
L 326.552746 -170.816064 
L 328.186003 -170.816064 
L 329.81926 -170.816064 
L 331.452517 -170.816064 
L 333.085774 -170.678584 
L 334.719032 -170.263219 
L 336.352289 -170.263219 
L 337.985546 -171.309787 
L 339.618803 -171.309787 
L 341.25206 -171.309787 
L 342.885317 -171.250552 
L 344.518575 -171.250552 
L 346.151832 -171.250552 
L 347.785089 -171.835095 
L 349.418346 -171.309787 
L 351.051603 -171.725151 
L 352.684861 -171.725151 
L 354.318118 -171.725151 
L 355.951375 -171.725151 
L 357.584632 -171.725151 
L 359.217889 -171.36468 
L 360.851147 -171.309787 
L 362.484404 -171.309787 
L 364.117661 -171.860449 
L 365.750918 -171.757705 
L 367.384175 -171.757705 
L 369.017433 -171.757705 
L 370.65069 -171.810011 
L 372.283947 -171.810011 
L 373.917204 -171.750776 
L 375.550461 -171.750776 
L 377.183719 -171.69847 
L 378.816976 -171.860134 
L 380.450233 -171.922901 
L 382.08349 -171.860134 
L 383.716747 -171.919369 
L 385.350005 -171.919369 
L 386.983262 -171.860134 
L 388.616519 -171.860134 
L 390.249776 -171.919369 
L 391.883033 -171.919369 
L 393.516291 -172.022541 
L 395.149548 -171.982136 
L 396.782805 -171.982136 
L 398.416062 -172.369694 
L 400.049319 -172.410099 
L 401.682577 -172.410099 
L 403.315834 -172.410099 
L 404.949091 -172.410099 
L 404.949091 -174.84564 
L 404.949091 -174.84564 
L 403.315834 -174.84564 
L 401.682577 -174.84564 
L 400.049319 -174.84564 
L 398.416062 -174.816709 
L 396.782805 -174.727013 
L 395.149548 -174.727013 
L 393.516291 -174.755944 
L 391.883033 -174.702491 
L 390.249776 -174.702491 
L 388.616519 -174.640781 
L 386.983262 -174.640781 
L 385.350005 -174.702491 
L 383.716747 -174.702491 
L 382.08349 -174.640781 
L 380.450233 -174.665303 
L 378.816976 -174.640781 
L 377.183719 -174.535134 
L 375.550461 -174.524673 
L 373.917204 -174.524673 
L 372.283947 -174.586383 
L 370.65069 -174.586383 
L 369.017433 -174.596844 
L 367.384175 -174.596844 
L 365.750918 -174.596844 
L 364.117661 -174.581704 
L 362.484404 -174.42969 
L 360.851147 -174.42969 
L 359.217889 -174.487283 
L 357.584632 -174.565641 
L 355.951375 -174.565641 
L 354.318118 -174.565641 
L 352.684861 -174.565641 
L 351.051603 -174.565641 
L 349.418346 -174.42969 
L 347.785089 -174.683683 
L 346.151832 -174.367981 
L 344.518575 -174.367981 
L 342.885317 -174.367981 
L 341.25206 -174.42969 
L 339.618803 -174.42969 
L 337.985546 -174.42969 
L 336.352289 -173.050166 
L 334.719032 -173.050166 
L 333.085774 -173.186116 
L 331.452517 -173.338444 
L 329.81926 -173.338444 
L 328.186003 -173.338444 
L 326.552746 -173.338444 
L 324.919488 -173.369647 
L 323.286231 -173.338444 
L 321.652974 -173.338444 
L 320.019717 -173.186116 
L 318.38646 -173.202494 
L 316.753202 -173.338444 
L 315.119945 -173.202494 
L 313.486688 -173.202494 
L 311.853431 -173.202494 
L 310.220174 -173.202494 
L 308.586916 -172.795588 
L 306.953659 -172.795588 
L 305.320402 -173.202494 
L 303.687145 -173.337387 
L 302.053888 -173.376959 
L 300.42063 -173.256914 
L 298.787373 -173.376959 
L 297.154116 -172.85849 
L 295.520859 -172.931538 
L 293.887602 -173.183686 
L 292.254344 -172.77678 
L 290.621087 -172.628682 
L 288.98783 -172.64326 
L 287.354573 -172.64326 
L 285.721316 -172.64326 
L 284.088058 -173.180357 
L 282.454801 -173.285508 
L 280.821544 -173.295992 
L 279.188287 -171.997277 
L 277.55503 -173.246948 
L 275.921772 -173.444675 
L 274.288515 -170.897121 
L 272.655258 -173.499883 
L 271.022001 -173.629219 
L 269.388744 -173.689264 
L 267.755487 -172.263215 
L 266.122229 -172.141123 
L 264.488972 -171.669651 
L 262.855715 -172.266388 
L 261.222458 -171.5409 
L 259.589201 -171.095186 
L 257.955943 -170.686346 
L 256.322686 -169.683153 
L 254.689429 -170.423669 
L 253.056172 -171.375253 
L 251.422915 -171.937187 
L 249.789657 -170.61458 
L 248.1564 -170.273478 
L 246.523143 -171.794263 
L 244.889886 -166.98759 
L 243.256629 -163.42753 
L 241.623371 -164.165864 
L 239.990114 -160.697367 
L 238.356857 -163.727889 
L 236.7236 -161.244205 
L 235.090343 -161.813293 
L 233.457085 -159.676514 
L 231.823828 -157.132875 
L 230.190571 -161.169762 
L 228.557314 -160.405466 
L 226.924057 -160.575995 
L 225.290799 -159.443376 
L 223.657542 -159.582408 
L 222.024285 -156.59409 
L 220.391028 -159.274063 
L 218.757771 -159.274063 
L 217.124513 -159.23548 
L 215.491256 -159.274063 
L 213.857999 -159.274063 
L 212.224742 -159.274063 
L 210.591485 -159.7081 
L 208.958228 -160.802429 
L 207.32497 -157.475011 
L 205.691713 -157.569027 
L 204.058456 -159.301464 
L 202.425199 -159.122927 
L 200.791942 -161.872865 
L 199.158684 -162.470029 
L 197.525427 -162.553426 
L 195.89217 -159.512937 
L 194.258913 -159.595637 
L 192.625656 -160.00342 
L 190.992398 -156.54066 
L 189.359141 -157.143336 
L 187.725884 -156.57652 
L 186.092627 -159.730395 
L 184.45937 -149.480516 
L 182.826112 -160.077976 
L 181.192855 -159.742948 
L 179.559598 -155.750133 
L 177.926341 -157.271547 
L 176.293084 -159.191881 
L 174.659826 -160.335725 
L 173.026569 -157.89951 
L 171.393312 -155.998096 
L 169.760055 -146.502075 
L 168.126798 -150.230301 
L 166.49354 -148.479011 
L 164.860283 -147.273569 
L 163.227026 -154.785658 
L 161.593769 -148.133747 
L 159.960512 -154.114815 
L 158.327254 -151.011042 
L 156.693997 -145.883538 
L 155.06074 -132.523497 
L 153.427483 -133.401448 
L 151.794226 -126.578492 
L 150.160968 -140.422694 
L 148.527711 -139.394822 
L 146.894454 -141.010252 
L 145.261197 -139.727892 
L 143.62794 -151.115204 
L 141.994683 -144.467186 
L 140.361425 -152.298036 
L 138.728168 -146.102593 
L 137.094911 -151.650906 
L 135.461654 -153.100509 
L 133.828397 -145.441132 
L 132.195139 -145.213843 
L 130.561882 -145.555372 
L 128.928625 -141.725661 
L 127.295368 -137.419888 
L 125.662111 -138.455994 
L 124.028853 -140.989915 
L 122.395596 -123.670107 
L 120.762339 -130.869373 
L 119.129082 -134.411795 
L 117.495825 -133.631054 
L 115.862567 -140.649015 
L 114.22931 -134.935821 
L 112.596053 -117.612864 
L 110.962796 -120.389483 
L 109.329539 -111.552448 
L 107.696281 -127.060359 
L 106.063024 -136.974535 
L 104.429767 -150.446791 
L 102.79651 -142.245165 
L 101.163253 -136.176089 
L 99.529995 -145.512695 
L 97.896738 -141.487664 
L 96.263481 -139.252033 
L 94.630224 -145.59022 
L 92.996967 -149.773002 
L 91.363709 -145.904056 
L 89.730452 -144.09884 
L 88.097195 -146.780274 
L 86.463938 -147.297259 
L 84.830681 -145.931435 
L 83.197423 -132.591034 
L 81.564166 -144.857961 
L 79.930909 -146.775617 
z
" style="stroke: #7ad6c1; stroke-opacity: 0.5"/>
    </defs>
    <g clip-path="url(#p12f60db6bc)">
     <use xlink:href="#maecc1d5d5a" x="0" y="216" style="fill: #7ad6c1; fill-opacity: 0.5; stroke: #7ad6c1; stroke-opacity: 0.5"/>
    </g>
   </g>
   <g id="PolyCollection_3">
    <defs>
     <path id="me81e8c8128" d="M 79.930909 -103.451632 
L 79.930909 -36.359303 
L 81.564166 -126.00567 
L 83.197423 -120.092814 
L 84.830681 -137.334466 
L 86.463938 -128.273247 
L 88.097195 -133.228153 
L 89.730452 -118.523503 
L 91.363709 -127.115094 
L 92.996967 -122.507342 
L 94.630224 -109.028561 
L 96.263481 -103.046953 
L 97.896738 -107.03176 
L 99.529995 -119.90827 
L 101.163253 -123.480883 
L 102.79651 -126.163713 
L 104.429767 -98.626535 
L 106.063024 -107.393514 
L 107.696281 -108.342983 
L 109.329539 -119.241747 
L 110.962796 -98.035692 
L 112.596053 -85.243277 
L 114.22931 -85.655335 
L 115.862567 -81.636355 
L 117.495825 -83.461931 
L 119.129082 -86.848921 
L 120.762339 -92.126683 
L 122.395596 -113.800273 
L 124.028853 -154.71072 
L 125.662111 -124.066619 
L 127.295368 -127.346387 
L 128.928625 -129.824088 
L 130.561882 -115.077301 
L 132.195139 -113.183289 
L 133.828397 -115.207694 
L 135.461654 -122.166735 
L 137.094911 -121.387704 
L 138.728168 -129.62735 
L 140.361425 -130.716977 
L 141.994683 -122.142393 
L 143.62794 -103.998605 
L 145.261197 -119.662038 
L 146.894454 -108.194547 
L 148.527711 -126.916017 
L 150.160968 -140.736484 
L 151.794226 -136.407697 
L 153.427483 -131.898437 
L 155.06074 -128.932683 
L 156.693997 -135.376473 
L 158.327254 -109.630607 
L 159.960512 -131.887751 
L 161.593769 -119.222872 
L 163.227026 -124.149656 
L 164.860283 -126.120676 
L 166.49354 -126.043668 
L 168.126798 -126.460022 
L 169.760055 -124.033391 
L 171.393312 -125.882656 
L 173.026569 -141.69547 
L 174.659826 -131.841857 
L 176.293084 -108.493624 
L 177.926341 -121.850178 
L 179.559598 -118.626765 
L 181.192855 -128.5676 
L 182.826112 -127.810863 
L 184.45937 -119.310588 
L 186.092627 -134.167499 
L 187.725884 -127.32605 
L 189.359141 -125.523421 
L 190.992398 -128.01759 
L 192.625656 -131.392049 
L 194.258913 -133.046848 
L 195.89217 -131.097674 
L 197.525427 -133.325723 
L 199.158684 -132.006491 
L 200.791942 -133.764372 
L 202.425199 -136.534063 
L 204.058456 -130.496347 
L 205.691713 -130.543906 
L 207.32497 -129.341299 
L 208.958228 -135.392108 
L 210.591485 -129.559184 
L 212.224742 -123.839848 
L 213.857999 -126.499258 
L 215.491256 -129.779363 
L 217.124513 -132.05423 
L 218.757771 -132.101001 
L 220.391028 -124.80277 
L 222.024285 -132.163138 
L 223.657542 -132.213059 
L 225.290799 -124.877438 
L 226.924057 -133.880728 
L 228.557314 -127.244588 
L 230.190571 -126.260068 
L 231.823828 -126.943149 
L 233.457085 -122.663202 
L 235.090343 -122.229345 
L 236.7236 -135.078183 
L 238.356857 -134.837284 
L 239.990114 -127.303508 
L 241.623371 -127.355994 
L 243.256629 -125.49287 
L 244.889886 -124.204414 
L 246.523143 -128.245891 
L 248.1564 -137.344838 
L 249.789657 -137.351182 
L 251.422915 -137.283578 
L 253.056172 -136.843646 
L 254.689429 -129.528363 
L 256.322686 -137.121306 
L 257.955943 -136.554783 
L 259.589201 -137.121306 
L 261.222458 -137.18513 
L 262.855715 -137.121306 
L 264.488972 -139.320402 
L 266.122229 -137.863892 
L 267.755487 -145.406711 
L 269.388744 -137.048933 
L 271.022001 -144.029639 
L 272.655258 -144.043272 
L 274.288515 -143.160102 
L 275.921772 -144.049009 
L 277.55503 -144.556319 
L 279.188287 -144.550582 
L 280.821544 -144.550582 
L 282.454801 -144.028761 
L 284.088058 -143.455579 
L 285.721316 -144.682731 
L 287.354573 -144.009616 
L 288.98783 -146.285157 
L 290.621087 -145.525429 
L 292.254344 -146.959622 
L 293.887602 -146.953525 
L 295.520859 -146.938497 
L 297.154116 -146.946371 
L 298.787373 -145.006825 
L 300.42063 -144.459582 
L 302.053888 -144.097985 
L 303.687145 -144.698974 
L 305.320402 -147.908281 
L 306.953659 -147.037867 
L 308.586916 -149.042295 
L 310.220174 -153.74017 
L 311.853431 -150.410346 
L 313.486688 -153.741768 
L 315.119945 -154.114523 
L 316.753202 -155.043632 
L 318.38646 -154.878796 
L 320.019717 -159.397279 
L 321.652974 -159.522656 
L 323.286231 -158.981577 
L 324.919488 -158.968416 
L 326.552746 -158.99602 
L 328.186003 -158.770352 
L 329.81926 -158.757011 
L 331.452517 -158.757011 
L 333.085774 -158.296629 
L 334.719032 -159.192016 
L 336.352289 -160.898559 
L 337.985546 -161.2274 
L 339.618803 -161.149244 
L 341.25206 -165.072251 
L 342.885317 -164.419632 
L 344.518575 -164.453692 
L 346.151832 -167.597938 
L 347.785089 -164.048969 
L 349.418346 -163.172413 
L 351.051603 -164.744558 
L 352.684861 -164.744558 
L 354.318118 -167.805587 
L 355.951375 -167.511706 
L 357.584632 -167.511706 
L 359.217889 -166.734948 
L 360.851147 -166.847681 
L 362.484404 -166.715285 
L 364.117661 -166.743137 
L 365.750918 -167.433709 
L 367.384175 -167.511706 
L 369.017433 -167.511706 
L 370.65069 -167.46714 
L 372.283947 -167.286038 
L 373.917204 -167.413821 
L 375.550461 -167.538501 
L 377.183719 -167.490402 
L 378.816976 -167.490402 
L 380.450233 -167.490402 
L 382.08349 -167.803899 
L 383.716747 -167.671504 
L 385.350005 -169.010781 
L 386.983262 -167.54372 
L 388.616519 -167.530087 
L 390.249776 -167.459783 
L 391.883033 -169.00086 
L 393.516291 -169.214335 
L 395.149548 -169.278182 
L 396.782805 -169.278182 
L 398.416062 -169.278182 
L 400.049319 -169.278182 
L 401.682577 -169.400994 
L 403.315834 -169.278182 
L 404.949091 -169.400994 
L 404.949091 -169.893681 
L 404.949091 -169.893681 
L 403.315834 -169.773119 
L 401.682577 -169.893681 
L 400.049319 -169.773119 
L 398.416062 -169.773119 
L 396.782805 -169.773119 
L 395.149548 -169.773119 
L 393.516291 -169.708147 
L 391.883033 -169.499846 
L 390.249776 -168.680703 
L 388.616519 -168.746507 
L 386.983262 -168.752716 
L 385.350005 -169.516517 
L 383.716747 -168.893998 
L 382.08349 -168.975101 
L 380.450233 -168.705022 
L 378.816976 -168.705022 
L 377.183719 -168.705022 
L 375.550461 -168.76122 
L 373.917204 -168.625292 
L 372.283947 -168.515731 
L 370.65069 -168.704707 
L 369.017433 -168.727227 
L 367.384175 -168.727227 
L 365.750918 -168.658453 
L 364.117661 -168.6023 
L 362.484404 -168.314832 
L 360.851147 -168.395934 
L 359.217889 -168.345293 
L 357.584632 -168.815191 
L 355.951375 -168.815191 
L 354.318118 -169.103897 
L 352.684861 -167.713056 
L 351.051603 -167.713056 
L 349.418346 -166.65677 
L 347.785089 -166.894857 
L 346.151832 -169.040905 
L 344.518575 -167.428714 
L 342.885317 -167.408377 
L 341.25206 -168.058297 
L 339.618803 -164.085572 
L 337.985546 -164.148879 
L 336.352289 -163.820038 
L 334.719032 -162.164113 
L 333.085774 -161.275026 
L 331.452517 -161.742382 
L 329.81926 -161.742382 
L 328.186003 -161.755272 
L 326.552746 -161.984766 
L 324.919488 -161.966161 
L 323.286231 -161.969648 
L 321.652974 -162.48058 
L 320.019717 -162.356329 
L 318.38646 -158.262816 
L 316.753202 -158.415954 
L 315.119945 -157.507092 
L 313.486688 -157.140186 
L 311.853431 -155.737219 
L 310.220174 -157.13274 
L 308.586916 -154.420237 
L 306.953659 -151.602087 
L 305.320402 -152.913895 
L 303.687145 -151.61392 
L 302.053888 -151.034754 
L 300.42063 -151.247419 
L 298.787373 -151.732345 
L 297.154116 -151.778982 
L 295.520859 -151.737362 
L 293.887602 -151.785236 
L 292.254344 -151.792008 
L 290.621087 -149.984362 
L 288.98783 -150.739367 
L 287.354573 -149.41568 
L 285.721316 -150.522089 
L 284.088058 -149.656467 
L 282.454801 -149.841123 
L 280.821544 -150.420987 
L 279.188287 -150.420987 
L 277.55503 -150.426949 
L 275.921772 -149.675994 
L 274.288515 -148.351542 
L 272.655258 -149.670032 
L 271.022001 -149.656399 
L 269.388744 -142.241498 
L 267.755487 -151.306362 
L 266.122229 -141.672658 
L 264.488972 -143.531867 
L 262.855715 -142.037832 
L 261.222458 -142.074884 
L 259.589201 -142.037832 
L 257.955943 -141.201343 
L 256.322686 -142.037832 
L 254.689429 -134.818116 
L 253.056172 -142.515176 
L 251.422915 -142.156009 
L 249.789657 -142.221363 
L 248.1564 -142.214794 
L 246.523143 -132.710224 
L 244.889886 -128.325891 
L 243.256629 -129.931557 
L 241.623371 -131.572408 
L 239.990114 -131.53567 
L 238.356857 -138.88137 
L 236.7236 -139.168164 
L 235.090343 -126.747446 
L 233.457085 -126.954082 
L 231.823828 -131.330316 
L 230.190571 -131.121026 
L 228.557314 -132.123543 
L 226.924057 -139.57138 
L 225.290799 -129.868655 
L 223.657542 -137.499888 
L 222.024285 -137.446142 
L 220.391028 -129.642581 
L 218.757771 -137.233724 
L 217.124513 -137.184028 
L 215.491256 -135.882838 
L 213.857999 -133.356387 
L 212.224742 -130.959069 
L 210.591485 -135.69483 
L 208.958228 -141.046315 
L 207.32497 -135.087744 
L 205.691713 -135.421512 
L 204.058456 -135.414223 
L 202.425199 -141.3579 
L 200.791942 -140.847373 
L 199.158684 -138.463846 
L 197.525427 -140.330658 
L 195.89217 -138.679436 
L 194.258913 -139.283956 
L 192.625656 -138.501371 
L 190.992398 -135.951882 
L 189.359141 -133.790896 
L 187.725884 -135.546056 
L 186.092627 -138.158492 
L 184.45937 -125.077956 
L 182.826112 -133.298816 
L 181.192855 -133.25353 
L 179.559598 -123.819555 
L 177.926341 -129.128904 
L 176.293084 -116.709581 
L 174.659826 -137.051295 
L 173.026569 -147.418068 
L 171.393312 -134.938881 
L 169.760055 -130.331016 
L 168.126798 -134.357644 
L 166.49354 -131.720822 
L 164.860283 -132.591079 
L 163.227026 -131.072927 
L 161.593769 -125.829383 
L 159.960512 -140.809218 
L 158.327254 -118.215517 
L 156.693997 -144.80615 
L 155.06074 -138.772709 
L 153.427483 -141.536213 
L 151.794226 -145.227926 
L 150.160968 -148.787987 
L 148.527711 -137.016784 
L 146.894454 -118.09374 
L 145.261197 -127.971133 
L 143.62794 -113.653479 
L 141.994683 -129.7687 
L 140.361425 -137.996152 
L 138.728168 -135.918226 
L 137.094911 -129.948767 
L 135.461654 -128.90238 
L 133.828397 -123.539061 
L 132.195139 -122.158974 
L 130.561882 -123.102481 
L 128.928625 -137.91631 
L 127.295368 -135.237035 
L 125.662111 -136.471993 
L 124.028853 -158.044121 
L 122.395596 -122.13299 
L 120.762339 -102.957932 
L 119.129082 -98.101542 
L 117.495825 -94.479906 
L 115.862567 -93.102249 
L 114.22931 -96.195696 
L 112.596053 -98.731439 
L 110.962796 -110.290786 
L 109.329539 -128.19336 
L 107.696281 -117.78211 
L 106.063024 -117.024766 
L 104.429767 -107.147328 
L 102.79651 -149.809335 
L 101.163253 -136.830913 
L 99.529995 -128.184743 
L 97.896738 -119.049059 
L 96.263481 -111.321178 
L 94.630224 -118.299184 
L 92.996967 -129.159072 
L 91.363709 -139.493472 
L 89.730452 -127.495588 
L 88.097195 -140.586743 
L 86.463938 -135.823738 
L 84.830681 -144.716679 
L 83.197423 -130.637449 
L 81.564166 -131.630631 
L 79.930909 -103.451632 
z
" style="stroke: #f7a1a1; stroke-opacity: 0.5"/>
    </defs>
    <g clip-path="url(#p12f60db6bc)">
     <use xlink:href="#me81e8c8128" x="0" y="216" style="fill: #f7a1a1; fill-opacity: 0.5; stroke: #f7a1a1; stroke-opacity: 0.5"/>
    </g>
   </g>
   <g id="matplotlib.axis_1">
    <g id="xtick_1">
     <g id="line2d_1">
      <defs>
       <path id="m640a5e1378" d="M 0 0 
L 0 3.5 
" style="stroke: #000000; stroke-width: 0.8"/>
      </defs>
      <g>
       <use xlink:href="#m640a5e1378" x="78.297652" y="168.28" style="stroke: #000000; stroke-width: 0.8"/>
      </g>
     </g>
     <g id="text_1">
      <!-- 0 -->
      <g transform="translate(74.797652 185.00125) scale(0.14 -0.14)">
       <defs>
        <path id="TimesNewRomanPSMT-30" d="M 231 2094 
Q 231 2819 450 3342 
Q 669 3866 1031 4122 
Q 1313 4325 1613 4325 
Q 2100 4325 2488 3828 
Q 2972 3213 2972 2159 
Q 2972 1422 2759 906 
Q 2547 391 2217 158 
Q 1888 -75 1581 -75 
Q 975 -75 572 641 
Q 231 1244 231 2094 
z
M 844 2016 
Q 844 1141 1059 588 
Q 1238 122 1591 122 
Q 1759 122 1940 273 
Q 2122 425 2216 781 
Q 2359 1319 2359 2297 
Q 2359 3022 2209 3506 
Q 2097 3866 1919 4016 
Q 1791 4119 1609 4119 
Q 1397 4119 1231 3928 
Q 1006 3669 925 3112 
Q 844 2556 844 2016 
z
" transform="scale(0.015625)"/>
       </defs>
       <use xlink:href="#TimesNewRomanPSMT-30"/>
      </g>
     </g>
    </g>
    <g id="xtick_2">
     <g id="line2d_2">
      <g>
       <use xlink:href="#m640a5e1378" x="143.62794" y="168.28" style="stroke: #000000; stroke-width: 0.8"/>
      </g>
     </g>
     <g id="text_2">
      <!-- 200 -->
      <g transform="translate(133.12794 185.00125) scale(0.14 -0.14)">
       <defs>
        <path id="TimesNewRomanPSMT-32" d="M 2934 816 
L 2638 0 
L 138 0 
L 138 116 
Q 1241 1122 1691 1759 
Q 2141 2397 2141 2925 
Q 2141 3328 1894 3587 
Q 1647 3847 1303 3847 
Q 991 3847 742 3664 
Q 494 3481 375 3128 
L 259 3128 
Q 338 3706 661 4015 
Q 984 4325 1469 4325 
Q 1984 4325 2329 3994 
Q 2675 3663 2675 3213 
Q 2675 2891 2525 2569 
Q 2294 2063 1775 1497 
Q 997 647 803 472 
L 1909 472 
Q 2247 472 2383 497 
Q 2519 522 2628 598 
Q 2738 675 2819 816 
L 2934 816 
z
" transform="scale(0.015625)"/>
       </defs>
       <use xlink:href="#TimesNewRomanPSMT-32"/>
       <use xlink:href="#TimesNewRomanPSMT-30" x="50"/>
       <use xlink:href="#TimesNewRomanPSMT-30" x="100"/>
      </g>
     </g>
    </g>
    <g id="xtick_3">
     <g id="line2d_3">
      <g>
       <use xlink:href="#m640a5e1378" x="208.958228" y="168.28" style="stroke: #000000; stroke-width: 0.8"/>
      </g>
     </g>
     <g id="text_3">
      <!-- 400 -->
      <g transform="translate(198.458228 185.00125) scale(0.14 -0.14)">
       <defs>
        <path id="TimesNewRomanPSMT-34" d="M 2978 1563 
L 2978 1119 
L 2409 1119 
L 2409 0 
L 1894 0 
L 1894 1119 
L 100 1119 
L 100 1519 
L 2066 4325 
L 2409 4325 
L 2409 1563 
L 2978 1563 
z
M 1894 1563 
L 1894 3666 
L 406 1563 
L 1894 1563 
z
" transform="scale(0.015625)"/>
       </defs>
       <use xlink:href="#TimesNewRomanPSMT-34"/>
       <use xlink:href="#TimesNewRomanPSMT-30" x="50"/>
       <use xlink:href="#TimesNewRomanPSMT-30" x="100"/>
      </g>
     </g>
    </g>
    <g id="xtick_4">
     <g id="line2d_4">
      <g>
       <use xlink:href="#m640a5e1378" x="274.288515" y="168.28" style="stroke: #000000; stroke-width: 0.8"/>
      </g>
     </g>
     <g id="text_4">
      <!-- 600 -->
      <g transform="translate(263.788515 185.00125) scale(0.14 -0.14)">
       <defs>
        <path id="TimesNewRomanPSMT-36" d="M 2869 4325 
L 2869 4209 
Q 2456 4169 2195 4045 
Q 1934 3922 1679 3669 
Q 1425 3416 1258 3105 
Q 1091 2794 978 2366 
Q 1428 2675 1881 2675 
Q 2316 2675 2634 2325 
Q 2953 1975 2953 1425 
Q 2953 894 2631 456 
Q 2244 -75 1606 -75 
Q 1172 -75 869 213 
Q 275 772 275 1663 
Q 275 2231 503 2743 
Q 731 3256 1154 3653 
Q 1578 4050 1965 4187 
Q 2353 4325 2688 4325 
L 2869 4325 
z
M 925 2138 
Q 869 1716 869 1456 
Q 869 1156 980 804 
Q 1091 453 1309 247 
Q 1469 100 1697 100 
Q 1969 100 2183 356 
Q 2397 613 2397 1088 
Q 2397 1622 2184 2012 
Q 1972 2403 1581 2403 
Q 1463 2403 1327 2353 
Q 1191 2303 925 2138 
z
" transform="scale(0.015625)"/>
       </defs>
       <use xlink:href="#TimesNewRomanPSMT-36"/>
       <use xlink:href="#TimesNewRomanPSMT-30" x="50"/>
       <use xlink:href="#TimesNewRomanPSMT-30" x="100"/>
      </g>
     </g>
    </g>
    <g id="xtick_5">
     <g id="line2d_5">
      <g>
       <use xlink:href="#m640a5e1378" x="339.618803" y="168.28" style="stroke: #000000; stroke-width: 0.8"/>
      </g>
     </g>
     <g id="text_5">
      <!-- 800 -->
      <g transform="translate(329.118803 185.00125) scale(0.14 -0.14)">
       <defs>
        <path id="TimesNewRomanPSMT-38" d="M 1228 2134 
Q 725 2547 579 2797 
Q 434 3047 434 3316 
Q 434 3728 753 4026 
Q 1072 4325 1600 4325 
Q 2113 4325 2425 4047 
Q 2738 3769 2738 3413 
Q 2738 3175 2569 2928 
Q 2400 2681 1866 2347 
Q 2416 1922 2594 1678 
Q 2831 1359 2831 1006 
Q 2831 559 2490 242 
Q 2150 -75 1597 -75 
Q 994 -75 656 303 
Q 388 606 388 966 
Q 388 1247 577 1523 
Q 766 1800 1228 2134 
z
M 1719 2469 
Q 2094 2806 2194 3001 
Q 2294 3197 2294 3444 
Q 2294 3772 2109 3958 
Q 1925 4144 1606 4144 
Q 1288 4144 1088 3959 
Q 888 3775 888 3528 
Q 888 3366 970 3203 
Q 1053 3041 1206 2894 
L 1719 2469 
z
M 1375 2016 
Q 1116 1797 991 1539 
Q 866 1281 866 981 
Q 866 578 1086 336 
Q 1306 94 1647 94 
Q 1984 94 2187 284 
Q 2391 475 2391 747 
Q 2391 972 2272 1150 
Q 2050 1481 1375 2016 
z
" transform="scale(0.015625)"/>
       </defs>
       <use xlink:href="#TimesNewRomanPSMT-38"/>
       <use xlink:href="#TimesNewRomanPSMT-30" x="50"/>
       <use xlink:href="#TimesNewRomanPSMT-30" x="100"/>
      </g>
     </g>
    </g>
    <g id="xtick_6">
     <g id="line2d_6">
      <g>
       <use xlink:href="#m640a5e1378" x="404.949091" y="168.28" style="stroke: #000000; stroke-width: 0.8"/>
      </g>
     </g>
     <g id="text_6">
      <!-- 1000 -->
      <g transform="translate(390.949091 185.00125) scale(0.14 -0.14)">
       <defs>
        <path id="TimesNewRomanPSMT-31" d="M 750 3822 
L 1781 4325 
L 1884 4325 
L 1884 747 
Q 1884 391 1914 303 
Q 1944 216 2037 169 
Q 2131 122 2419 116 
L 2419 0 
L 825 0 
L 825 116 
Q 1125 122 1212 167 
Q 1300 213 1334 289 
Q 1369 366 1369 747 
L 1369 3034 
Q 1369 3497 1338 3628 
Q 1316 3728 1258 3775 
Q 1200 3822 1119 3822 
Q 1003 3822 797 3725 
L 750 3822 
z
" transform="scale(0.015625)"/>
       </defs>
       <use xlink:href="#TimesNewRomanPSMT-31"/>
       <use xlink:href="#TimesNewRomanPSMT-30" x="50"/>
       <use xlink:href="#TimesNewRomanPSMT-30" x="100"/>
       <use xlink:href="#TimesNewRomanPSMT-30" x="150"/>
      </g>
     </g>
    </g>
    <g id="text_7">
     <!-- # of Episodes -->
     <g transform="translate(204.332656 201.717187) scale(0.14 -0.14)">
      <defs>
       <path id="TimesNewRomanPSMT-23" d="M 359 -88 
L 650 1334 
L 116 1334 
L 116 1591 
L 700 1591 
L 916 2663 
L 116 2663 
L 116 2913 
L 975 2913 
L 1259 4334 
L 1519 4334 
L 1234 2913 
L 2288 2913 
L 2591 4334 
L 2850 4334 
L 2553 2913 
L 3084 2913 
L 3084 2663 
L 2506 2663 
L 2288 1591 
L 3084 1591 
L 3084 1334 
L 2234 1334 
L 1944 -88 
L 1691 -88 
L 1975 1334 
L 916 1334 
L 619 -88 
L 359 -88 
z
M 963 1591 
L 2022 1591 
L 2247 2663 
L 1181 2663 
L 963 1591 
z
" transform="scale(0.015625)"/>
       <path id="TimesNewRomanPSMT-20" transform="scale(0.015625)"/>
       <path id="TimesNewRomanPSMT-6f" d="M 1600 2947 
Q 2250 2947 2644 2453 
Q 2978 2031 2978 1484 
Q 2978 1100 2793 706 
Q 2609 313 2286 112 
Q 1963 -88 1566 -88 
Q 919 -88 538 428 
Q 216 863 216 1403 
Q 216 1797 411 2186 
Q 606 2575 925 2761 
Q 1244 2947 1600 2947 
z
M 1503 2744 
Q 1338 2744 1170 2645 
Q 1003 2547 900 2300 
Q 797 2053 797 1666 
Q 797 1041 1045 587 
Q 1294 134 1700 134 
Q 2003 134 2200 384 
Q 2397 634 2397 1244 
Q 2397 2006 2069 2444 
Q 1847 2744 1503 2744 
z
" transform="scale(0.015625)"/>
       <path id="TimesNewRomanPSMT-66" d="M 1319 2638 
L 1319 756 
Q 1319 356 1406 250 
Q 1522 113 1716 113 
L 1975 113 
L 1975 0 
L 266 0 
L 266 113 
L 394 113 
Q 519 113 622 175 
Q 725 238 764 344 
Q 803 450 803 756 
L 803 2638 
L 247 2638 
L 247 2863 
L 803 2863 
L 803 3050 
Q 803 3478 940 3775 
Q 1078 4072 1361 4255 
Q 1644 4438 1997 4438 
Q 2325 4438 2600 4225 
Q 2781 4084 2781 3909 
Q 2781 3816 2700 3733 
Q 2619 3650 2525 3650 
Q 2453 3650 2373 3701 
Q 2294 3753 2178 3923 
Q 2063 4094 1966 4153 
Q 1869 4213 1750 4213 
Q 1606 4213 1506 4136 
Q 1406 4059 1362 3898 
Q 1319 3738 1319 3069 
L 1319 2863 
L 2056 2863 
L 2056 2638 
L 1319 2638 
z
" transform="scale(0.015625)"/>
       <path id="TimesNewRomanPSMT-45" d="M 1338 4006 
L 1338 2331 
L 2269 2331 
Q 2631 2331 2753 2441 
Q 2916 2584 2934 2947 
L 3050 2947 
L 3050 1472 
L 2934 1472 
Q 2891 1781 2847 1869 
Q 2791 1978 2662 2040 
Q 2534 2103 2269 2103 
L 1338 2103 
L 1338 706 
Q 1338 425 1363 364 
Q 1388 303 1450 267 
Q 1513 231 1688 231 
L 2406 231 
Q 2766 231 2928 281 
Q 3091 331 3241 478 
Q 3434 672 3638 1063 
L 3763 1063 
L 3397 0 
L 131 0 
L 131 116 
L 281 116 
Q 431 116 566 188 
Q 666 238 702 338 
Q 738 438 738 747 
L 738 3500 
Q 738 3903 656 3997 
Q 544 4122 281 4122 
L 131 4122 
L 131 4238 
L 3397 4238 
L 3444 3309 
L 3322 3309 
Q 3256 3644 3176 3769 
Q 3097 3894 2941 3959 
Q 2816 4006 2500 4006 
L 1338 4006 
z
" transform="scale(0.015625)"/>
       <path id="TimesNewRomanPSMT-70" d="M -6 2578 
L 875 2934 
L 994 2934 
L 994 2266 
Q 1216 2644 1439 2795 
Q 1663 2947 1909 2947 
Q 2341 2947 2628 2609 
Q 2981 2197 2981 1534 
Q 2981 794 2556 309 
Q 2206 -88 1675 -88 
Q 1444 -88 1275 -22 
Q 1150 25 994 166 
L 994 -706 
Q 994 -1000 1030 -1079 
Q 1066 -1159 1155 -1206 
Q 1244 -1253 1478 -1253 
L 1478 -1369 
L -22 -1369 
L -22 -1253 
L 56 -1253 
Q 228 -1256 350 -1188 
Q 409 -1153 442 -1076 
Q 475 -1000 475 -688 
L 475 2019 
Q 475 2297 450 2372 
Q 425 2447 370 2484 
Q 316 2522 222 2522 
Q 147 2522 31 2478 
L -6 2578 
z
M 994 2081 
L 994 1013 
Q 994 666 1022 556 
Q 1066 375 1236 237 
Q 1406 100 1666 100 
Q 1978 100 2172 344 
Q 2425 663 2425 1241 
Q 2425 1897 2138 2250 
Q 1938 2494 1663 2494 
Q 1513 2494 1366 2419 
Q 1253 2363 994 2081 
z
" transform="scale(0.015625)"/>
       <path id="TimesNewRomanPSMT-69" d="M 928 4444 
Q 1059 4444 1151 4351 
Q 1244 4259 1244 4128 
Q 1244 3997 1151 3903 
Q 1059 3809 928 3809 
Q 797 3809 703 3903 
Q 609 3997 609 4128 
Q 609 4259 701 4351 
Q 794 4444 928 4444 
z
M 1188 2947 
L 1188 647 
Q 1188 378 1227 289 
Q 1266 200 1342 156 
Q 1419 113 1622 113 
L 1622 0 
L 231 0 
L 231 113 
Q 441 113 512 153 
Q 584 194 626 287 
Q 669 381 669 647 
L 669 1750 
Q 669 2216 641 2353 
Q 619 2453 572 2492 
Q 525 2531 444 2531 
Q 356 2531 231 2484 
L 188 2597 
L 1050 2947 
L 1188 2947 
z
" transform="scale(0.015625)"/>
       <path id="TimesNewRomanPSMT-73" d="M 2050 2947 
L 2050 1972 
L 1947 1972 
Q 1828 2431 1642 2597 
Q 1456 2763 1169 2763 
Q 950 2763 815 2647 
Q 681 2531 681 2391 
Q 681 2216 781 2091 
Q 878 1963 1175 1819 
L 1631 1597 
Q 2266 1288 2266 781 
Q 2266 391 1970 151 
Q 1675 -88 1309 -88 
Q 1047 -88 709 6 
Q 606 38 541 38 
Q 469 38 428 -44 
L 325 -44 
L 325 978 
L 428 978 
Q 516 541 762 319 
Q 1009 97 1316 97 
Q 1531 97 1667 223 
Q 1803 350 1803 528 
Q 1803 744 1651 891 
Q 1500 1038 1047 1263 
Q 594 1488 453 1669 
Q 313 1847 313 2119 
Q 313 2472 555 2709 
Q 797 2947 1181 2947 
Q 1350 2947 1591 2875 
Q 1750 2828 1803 2828 
Q 1853 2828 1881 2850 
Q 1909 2872 1947 2947 
L 2050 2947 
z
" transform="scale(0.015625)"/>
       <path id="TimesNewRomanPSMT-64" d="M 2222 322 
Q 2013 103 1813 7 
Q 1613 -88 1381 -88 
Q 913 -88 563 304 
Q 213 697 213 1313 
Q 213 1928 600 2439 
Q 988 2950 1597 2950 
Q 1975 2950 2222 2709 
L 2222 3238 
Q 2222 3728 2198 3840 
Q 2175 3953 2125 3993 
Q 2075 4034 2000 4034 
Q 1919 4034 1784 3984 
L 1744 4094 
L 2597 4444 
L 2738 4444 
L 2738 1134 
Q 2738 631 2761 520 
Q 2784 409 2836 365 
Q 2888 322 2956 322 
Q 3041 322 3181 375 
L 3216 266 
L 2366 -88 
L 2222 -88 
L 2222 322 
z
M 2222 541 
L 2222 2016 
Q 2203 2228 2109 2403 
Q 2016 2578 1861 2667 
Q 1706 2756 1559 2756 
Q 1284 2756 1069 2509 
Q 784 2184 784 1559 
Q 784 928 1059 592 
Q 1334 256 1672 256 
Q 1956 256 2222 541 
z
" transform="scale(0.015625)"/>
       <path id="TimesNewRomanPSMT-65" d="M 681 1784 
Q 678 1147 991 784 
Q 1303 422 1725 422 
Q 2006 422 2214 576 
Q 2422 731 2563 1106 
L 2659 1044 
Q 2594 616 2278 264 
Q 1963 -88 1488 -88 
Q 972 -88 605 314 
Q 238 716 238 1394 
Q 238 2128 614 2539 
Q 991 2950 1559 2950 
Q 2041 2950 2350 2633 
Q 2659 2316 2659 1784 
L 681 1784 
z
M 681 1966 
L 2006 1966 
Q 1991 2241 1941 2353 
Q 1863 2528 1708 2628 
Q 1553 2728 1384 2728 
Q 1125 2728 920 2526 
Q 716 2325 681 1966 
z
" transform="scale(0.015625)"/>
      </defs>
      <use xlink:href="#TimesNewRomanPSMT-23"/>
      <use xlink:href="#TimesNewRomanPSMT-20" x="50"/>
      <use xlink:href="#TimesNewRomanPSMT-6f" x="75"/>
      <use xlink:href="#TimesNewRomanPSMT-66" x="125"/>
      <use xlink:href="#TimesNewRomanPSMT-20" x="158.300781"/>
      <use xlink:href="#TimesNewRomanPSMT-45" x="183.300781"/>
      <use xlink:href="#TimesNewRomanPSMT-70" x="244.384766"/>
      <use xlink:href="#TimesNewRomanPSMT-69" x="294.384766"/>
      <use xlink:href="#TimesNewRomanPSMT-73" x="322.167969"/>
      <use xlink:href="#TimesNewRomanPSMT-6f" x="361.083984"/>
      <use xlink:href="#TimesNewRomanPSMT-64" x="411.083984"/>
      <use xlink:href="#TimesNewRomanPSMT-65" x="461.083984"/>
      <use xlink:href="#TimesNewRomanPSMT-73" x="505.46875"/>
     </g>
    </g>
   </g>
   <g id="matplotlib.axis_2">
    <g id="ytick_1">
     <g id="line2d_7">
      <defs>
       <path id="mc26b00be44" d="M 0 0 
L -3.5 0 
" style="stroke: #000000; stroke-width: 0.8"/>
      </defs>
      <g>
       <use xlink:href="#mc26b00be44" x="63.68" y="145.782857" style="stroke: #000000; stroke-width: 0.8"/>
      </g>
     </g>
     <g id="text_8">
      <!-- −100 -->
      <g transform="translate(27.785312 150.643482) scale(0.14 -0.14)">
       <defs>
        <path id="TimesNewRomanPSMT-2212" d="M 3484 2000 
L 116 2000 
L 116 2256 
L 3484 2256 
L 3484 2000 
z
" transform="scale(0.015625)"/>
       </defs>
       <use xlink:href="#TimesNewRomanPSMT-2212"/>
       <use xlink:href="#TimesNewRomanPSMT-31" x="56.396484"/>
       <use xlink:href="#TimesNewRomanPSMT-30" x="106.396484"/>
       <use xlink:href="#TimesNewRomanPSMT-30" x="156.396484"/>
      </g>
     </g>
    </g>
    <g id="ytick_2">
     <g id="line2d_8">
      <g>
       <use xlink:href="#mc26b00be44" x="63.68" y="89.54" style="stroke: #000000; stroke-width: 0.8"/>
      </g>
     </g>
     <g id="text_9">
      <!-- −50 -->
      <g transform="translate(34.785312 94.400625) scale(0.14 -0.14)">
       <defs>
        <path id="TimesNewRomanPSMT-35" d="M 2778 4238 
L 2534 3706 
L 1259 3706 
L 981 3138 
Q 1809 3016 2294 2522 
Q 2709 2097 2709 1522 
Q 2709 1188 2573 903 
Q 2438 619 2231 419 
Q 2025 219 1772 97 
Q 1413 -75 1034 -75 
Q 653 -75 479 54 
Q 306 184 306 341 
Q 306 428 378 495 
Q 450 563 559 563 
Q 641 563 702 538 
Q 763 513 909 409 
Q 1144 247 1384 247 
Q 1750 247 2026 523 
Q 2303 800 2303 1197 
Q 2303 1581 2056 1914 
Q 1809 2247 1375 2428 
Q 1034 2569 447 2591 
L 1259 4238 
L 2778 4238 
z
" transform="scale(0.015625)"/>
       </defs>
       <use xlink:href="#TimesNewRomanPSMT-2212"/>
       <use xlink:href="#TimesNewRomanPSMT-35" x="56.396484"/>
       <use xlink:href="#TimesNewRomanPSMT-30" x="106.396484"/>
      </g>
     </g>
    </g>
    <g id="ytick_3">
     <g id="line2d_9">
      <g>
       <use xlink:href="#mc26b00be44" x="63.68" y="33.297143" style="stroke: #000000; stroke-width: 0.8"/>
      </g>
     </g>
     <g id="text_10">
      <!-- 0 -->
      <g transform="translate(49.68 38.157768) scale(0.14 -0.14)">
       <use xlink:href="#TimesNewRomanPSMT-30"/>
      </g>
     </g>
    </g>
    <g id="text_11">
     <!-- Cumulative Rewards -->
     <g transform="translate(20.790625 148.447188) rotate(-90) scale(0.14 -0.14)">
      <defs>
       <path id="TimesNewRomanPSMT-43" d="M 3853 4334 
L 3950 2894 
L 3853 2894 
Q 3659 3541 3300 3825 
Q 2941 4109 2438 4109 
Q 2016 4109 1675 3895 
Q 1334 3681 1139 3212 
Q 944 2744 944 2047 
Q 944 1472 1128 1050 
Q 1313 628 1683 403 
Q 2053 178 2528 178 
Q 2941 178 3256 354 
Q 3572 531 3950 1056 
L 4047 994 
Q 3728 428 3303 165 
Q 2878 -97 2294 -97 
Q 1241 -97 663 684 
Q 231 1266 231 2053 
Q 231 2688 515 3219 
Q 800 3750 1298 4042 
Q 1797 4334 2388 4334 
Q 2847 4334 3294 4109 
Q 3425 4041 3481 4041 
Q 3566 4041 3628 4100 
Q 3709 4184 3744 4334 
L 3853 4334 
z
" transform="scale(0.015625)"/>
       <path id="TimesNewRomanPSMT-75" d="M 2709 2863 
L 2709 1128 
Q 2709 631 2732 520 
Q 2756 409 2807 365 
Q 2859 322 2928 322 
Q 3025 322 3147 375 
L 3191 266 
L 2334 -88 
L 2194 -88 
L 2194 519 
Q 1825 119 1631 15 
Q 1438 -88 1222 -88 
Q 981 -88 804 51 
Q 628 191 559 409 
Q 491 628 491 1028 
L 491 2306 
Q 491 2509 447 2587 
Q 403 2666 317 2708 
Q 231 2750 6 2747 
L 6 2863 
L 1009 2863 
L 1009 947 
Q 1009 547 1148 422 
Q 1288 297 1484 297 
Q 1619 297 1789 381 
Q 1959 466 2194 703 
L 2194 2325 
Q 2194 2569 2105 2655 
Q 2016 2741 1734 2747 
L 1734 2863 
L 2709 2863 
z
" transform="scale(0.015625)"/>
       <path id="TimesNewRomanPSMT-6d" d="M 1050 2338 
Q 1363 2650 1419 2697 
Q 1559 2816 1721 2881 
Q 1884 2947 2044 2947 
Q 2313 2947 2506 2790 
Q 2700 2634 2766 2338 
Q 3088 2713 3309 2830 
Q 3531 2947 3766 2947 
Q 3994 2947 4170 2830 
Q 4347 2713 4450 2447 
Q 4519 2266 4519 1878 
L 4519 647 
Q 4519 378 4559 278 
Q 4591 209 4675 161 
Q 4759 113 4950 113 
L 4950 0 
L 3538 0 
L 3538 113 
L 3597 113 
Q 3781 113 3884 184 
Q 3956 234 3988 344 
Q 4000 397 4000 647 
L 4000 1878 
Q 4000 2228 3916 2372 
Q 3794 2572 3525 2572 
Q 3359 2572 3192 2489 
Q 3025 2406 2788 2181 
L 2781 2147 
L 2788 2013 
L 2788 647 
Q 2788 353 2820 281 
Q 2853 209 2943 161 
Q 3034 113 3253 113 
L 3253 0 
L 1806 0 
L 1806 113 
Q 2044 113 2133 169 
Q 2222 225 2256 338 
Q 2272 391 2272 647 
L 2272 1878 
Q 2272 2228 2169 2381 
Q 2031 2581 1784 2581 
Q 1616 2581 1450 2491 
Q 1191 2353 1050 2181 
L 1050 647 
Q 1050 366 1089 281 
Q 1128 197 1204 155 
Q 1281 113 1516 113 
L 1516 0 
L 100 0 
L 100 113 
Q 297 113 375 155 
Q 453 197 493 289 
Q 534 381 534 647 
L 534 1741 
Q 534 2213 506 2350 
Q 484 2453 437 2492 
Q 391 2531 309 2531 
Q 222 2531 100 2484 
L 53 2597 
L 916 2947 
L 1050 2947 
L 1050 2338 
z
" transform="scale(0.015625)"/>
       <path id="TimesNewRomanPSMT-6c" d="M 1184 4444 
L 1184 647 
Q 1184 378 1223 290 
Q 1263 203 1344 158 
Q 1425 113 1647 113 
L 1647 0 
L 244 0 
L 244 113 
Q 441 113 512 153 
Q 584 194 625 287 
Q 666 381 666 647 
L 666 3247 
Q 666 3731 644 3842 
Q 622 3953 573 3993 
Q 525 4034 450 4034 
Q 369 4034 244 3984 
L 191 4094 
L 1044 4444 
L 1184 4444 
z
" transform="scale(0.015625)"/>
       <path id="TimesNewRomanPSMT-61" d="M 1822 413 
Q 1381 72 1269 19 
Q 1100 -59 909 -59 
Q 613 -59 420 144 
Q 228 347 228 678 
Q 228 888 322 1041 
Q 450 1253 767 1440 
Q 1084 1628 1822 1897 
L 1822 2009 
Q 1822 2438 1686 2597 
Q 1550 2756 1291 2756 
Q 1094 2756 978 2650 
Q 859 2544 859 2406 
L 866 2225 
Q 866 2081 792 2003 
Q 719 1925 600 1925 
Q 484 1925 411 2006 
Q 338 2088 338 2228 
Q 338 2497 613 2722 
Q 888 2947 1384 2947 
Q 1766 2947 2009 2819 
Q 2194 2722 2281 2516 
Q 2338 2381 2338 1966 
L 2338 994 
Q 2338 584 2353 492 
Q 2369 400 2405 369 
Q 2441 338 2488 338 
Q 2538 338 2575 359 
Q 2641 400 2828 588 
L 2828 413 
Q 2478 -56 2159 -56 
Q 2006 -56 1915 50 
Q 1825 156 1822 413 
z
M 1822 616 
L 1822 1706 
Q 1350 1519 1213 1441 
Q 966 1303 859 1153 
Q 753 1003 753 825 
Q 753 600 887 451 
Q 1022 303 1197 303 
Q 1434 303 1822 616 
z
" transform="scale(0.015625)"/>
       <path id="TimesNewRomanPSMT-74" d="M 1031 3803 
L 1031 2863 
L 1700 2863 
L 1700 2644 
L 1031 2644 
L 1031 788 
Q 1031 509 1111 412 
Q 1191 316 1316 316 
Q 1419 316 1516 380 
Q 1613 444 1666 569 
L 1788 569 
Q 1678 263 1478 108 
Q 1278 -47 1066 -47 
Q 922 -47 784 33 
Q 647 113 581 261 
Q 516 409 516 719 
L 516 2644 
L 63 2644 
L 63 2747 
Q 234 2816 414 2980 
Q 594 3144 734 3369 
Q 806 3488 934 3803 
L 1031 3803 
z
" transform="scale(0.015625)"/>
       <path id="TimesNewRomanPSMT-76" d="M 53 2863 
L 1400 2863 
L 1400 2747 
L 1313 2747 
Q 1191 2747 1127 2687 
Q 1063 2628 1063 2528 
Q 1063 2419 1128 2269 
L 1794 688 
L 2463 2328 
Q 2534 2503 2534 2594 
Q 2534 2638 2509 2666 
Q 2475 2713 2422 2730 
Q 2369 2747 2206 2747 
L 2206 2863 
L 3141 2863 
L 3141 2747 
Q 2978 2734 2916 2681 
Q 2806 2588 2719 2369 
L 1703 -88 
L 1575 -88 
L 553 2328 
Q 484 2497 421 2570 
Q 359 2644 263 2694 
Q 209 2722 53 2747 
L 53 2863 
z
" transform="scale(0.015625)"/>
       <path id="TimesNewRomanPSMT-52" d="M 4325 0 
L 3194 0 
L 1759 1981 
Q 1600 1975 1500 1975 
Q 1459 1975 1412 1976 
Q 1366 1978 1316 1981 
L 1316 750 
Q 1316 350 1403 253 
Q 1522 116 1759 116 
L 1925 116 
L 1925 0 
L 109 0 
L 109 116 
L 269 116 
Q 538 116 653 291 
Q 719 388 719 750 
L 719 3488 
Q 719 3888 631 3984 
Q 509 4122 269 4122 
L 109 4122 
L 109 4238 
L 1653 4238 
Q 2328 4238 2648 4139 
Q 2969 4041 3192 3777 
Q 3416 3513 3416 3147 
Q 3416 2756 3161 2468 
Q 2906 2181 2372 2063 
L 3247 847 
Q 3547 428 3762 290 
Q 3978 153 4325 116 
L 4325 0 
z
M 1316 2178 
Q 1375 2178 1419 2176 
Q 1463 2175 1491 2175 
Q 2097 2175 2405 2437 
Q 2713 2700 2713 3106 
Q 2713 3503 2464 3751 
Q 2216 4000 1806 4000 
Q 1625 4000 1316 3941 
L 1316 2178 
z
" transform="scale(0.015625)"/>
       <path id="TimesNewRomanPSMT-77" d="M 41 2863 
L 1241 2863 
L 1241 2747 
Q 1075 2734 1023 2687 
Q 972 2641 972 2553 
Q 972 2456 1025 2319 
L 1638 672 
L 2253 2013 
L 2091 2434 
Q 2016 2622 1894 2694 
Q 1825 2738 1638 2747 
L 1638 2863 
L 3000 2863 
L 3000 2747 
Q 2775 2738 2681 2666 
Q 2619 2616 2619 2506 
Q 2619 2444 2644 2378 
L 3294 734 
L 3897 2319 
Q 3959 2488 3959 2588 
Q 3959 2647 3898 2694 
Q 3838 2741 3659 2747 
L 3659 2863 
L 4563 2863 
L 4563 2747 
Q 4291 2706 4163 2378 
L 3206 -88 
L 3078 -88 
L 2363 1741 
L 1528 -88 
L 1413 -88 
L 494 2319 
Q 403 2547 315 2626 
Q 228 2706 41 2747 
L 41 2863 
z
" transform="scale(0.015625)"/>
       <path id="TimesNewRomanPSMT-72" d="M 1038 2947 
L 1038 2303 
Q 1397 2947 1775 2947 
Q 1947 2947 2059 2842 
Q 2172 2738 2172 2600 
Q 2172 2478 2090 2393 
Q 2009 2309 1897 2309 
Q 1788 2309 1652 2417 
Q 1516 2525 1450 2525 
Q 1394 2525 1328 2463 
Q 1188 2334 1038 2041 
L 1038 669 
Q 1038 431 1097 309 
Q 1138 225 1241 169 
Q 1344 113 1538 113 
L 1538 0 
L 72 0 
L 72 113 
Q 291 113 397 181 
Q 475 231 506 341 
Q 522 394 522 644 
L 522 1753 
Q 522 2253 501 2348 
Q 481 2444 426 2487 
Q 372 2531 291 2531 
Q 194 2531 72 2484 
L 41 2597 
L 906 2947 
L 1038 2947 
z
" transform="scale(0.015625)"/>
      </defs>
      <use xlink:href="#TimesNewRomanPSMT-43"/>
      <use xlink:href="#TimesNewRomanPSMT-75" x="66.699219"/>
      <use xlink:href="#TimesNewRomanPSMT-6d" x="116.699219"/>
      <use xlink:href="#TimesNewRomanPSMT-75" x="194.482422"/>
      <use xlink:href="#TimesNewRomanPSMT-6c" x="244.482422"/>
      <use xlink:href="#TimesNewRomanPSMT-61" x="272.265625"/>
      <use xlink:href="#TimesNewRomanPSMT-74" x="316.650391"/>
      <use xlink:href="#TimesNewRomanPSMT-69" x="344.433594"/>
      <use xlink:href="#TimesNewRomanPSMT-76" x="372.216797"/>
      <use xlink:href="#TimesNewRomanPSMT-65" x="422.216797"/>
      <use xlink:href="#TimesNewRomanPSMT-20" x="466.601562"/>
      <use xlink:href="#TimesNewRomanPSMT-52" x="491.601562"/>
      <use xlink:href="#TimesNewRomanPSMT-65" x="558.300781"/>
      <use xlink:href="#TimesNewRomanPSMT-77" x="602.685547"/>
      <use xlink:href="#TimesNewRomanPSMT-61" x="674.902344"/>
      <use xlink:href="#TimesNewRomanPSMT-72" x="719.287109"/>
      <use xlink:href="#TimesNewRomanPSMT-64" x="752.587891"/>
      <use xlink:href="#TimesNewRomanPSMT-73" x="802.587891"/>
     </g>
    </g>
   </g>
   <g id="line2d_10">
    <path d="M 79.930909 59.755133 
L 81.564166 53.326552 
L 83.197423 50.89524 
L 84.830681 51.500526 
L 86.463938 45.87741 
L 88.097195 48.346832 
L 89.730452 45.329785 
L 91.363709 47.555944 
L 92.996967 45.805959 
L 94.630224 43.879326 
L 96.263481 45.779435 
L 97.896738 44.056176 
L 99.529995 47.878104 
L 101.163253 45.062991 
L 102.79651 44.520023 
L 104.429767 45.868681 
L 106.063024 45.197659 
L 107.696281 44.220248 
L 109.329539 44.71964 
L 110.962796 47.005304 
L 112.596053 48.227372 
L 114.22931 48.217878 
L 115.862567 44.025108 
L 119.129082 44.902969 
L 120.762339 43.903871 
L 122.395596 43.327179 
L 124.028853 43.43494 
L 125.662111 43.028012 
L 127.295368 42.844053 
L 128.928625 43.288484 
L 130.561882 42.438744 
L 132.195139 43.447359 
L 133.828397 44.241485 
L 138.728168 44.177774 
L 140.361425 42.763176 
L 141.994683 43.181825 
L 143.62794 42.345606 
L 145.261197 41.871996 
L 146.894454 42.90916 
L 148.527711 42.181557 
L 150.160968 42.724368 
L 151.794226 42.18023 
L 153.427483 42.036383 
L 155.06074 41.574922 
L 156.693997 41.686417 
L 158.327254 41.597014 
L 159.960512 41.693594 
L 161.593769 42.092693 
L 163.227026 41.632852 
L 164.860283 41.324078 
L 166.49354 41.941625 
L 171.393312 41.982795 
L 173.026569 41.350715 
L 174.659826 41.50761 
L 179.559598 40.788107 
L 181.192855 40.890176 
L 182.826112 41.199084 
L 184.45937 41.314967 
L 187.725884 41.300614 
L 189.359141 40.844664 
L 190.992398 41.303741 
L 192.625656 40.929861 
L 194.258913 41.303741 
L 195.89217 41.253055 
L 197.525427 41.456339 
L 199.158684 41.026621 
L 200.791942 40.962369 
L 204.058456 41.448938 
L 205.691713 41.255755 
L 208.958228 41.180344 
L 215.491256 41.153663 
L 217.124513 40.777668 
L 218.757771 41.151548 
L 222.024285 41.151548 
L 223.657542 40.777668 
L 225.290799 41.151548 
L 226.924057 40.777668 
L 233.457085 40.797623 
L 235.090343 41.171345 
L 236.7236 40.807319 
L 254.689429 40.803405 
L 404.949091 40.799738 
L 404.949091 40.799738 
" clip-path="url(#p12f60db6bc)" style="fill: none; stroke: #003f5c; stroke-width: 0.7; stroke-linecap: square"/>
   </g>
   <g id="line2d_11">
    <path d="M 79.930909 95.840977 
L 81.564166 79.237973 
L 83.197423 88.226729 
L 84.830681 74.633686 
L 86.463938 72.082037 
L 88.097195 72.344916 
L 89.730452 75.977192 
L 91.363709 73.650943 
L 92.996967 69.22193 
L 94.630224 73.687388 
L 96.263481 80.358421 
L 97.896738 79.190842 
L 99.529995 73.245792 
L 101.163253 83.521542 
L 102.79651 78.078673 
L 104.429767 69.098084 
L 106.063024 83.679562 
L 107.696281 92.664156 
L 109.329539 107.934159 
L 110.962796 99.071365 
L 112.596053 101.758558 
L 114.22931 83.987908 
L 115.862567 77.984388 
L 117.495825 85.593686 
L 119.129082 85.654114 
L 120.762339 88.747043 
L 122.395596 95.973643 
L 124.028853 77.760811 
L 125.662111 81.061322 
L 127.295368 82.744558 
L 128.928625 79.525959 
L 130.561882 75.618633 
L 132.195139 74.851165 
L 133.828397 74.671121 
L 135.461654 65.976763 
L 137.094911 67.47496 
L 138.728168 73.224847 
L 140.361425 67.213655 
L 141.994683 75.178251 
L 143.62794 67.879278 
L 145.261197 79.932843 
L 146.894454 78.331586 
L 148.527711 80.906294 
L 150.160968 79.732641 
L 151.794226 94.650968 
L 153.427483 87.795617 
L 155.06074 88.527111 
L 156.693997 74.337376 
L 158.327254 68.448681 
L 159.960512 65.067518 
L 161.593769 71.965007 
L 163.227026 64.992513 
L 164.860283 72.631035 
L 168.126798 70.218846 
L 169.760055 73.739424 
L 171.393312 64.073324 
L 173.026569 62.160212 
L 174.659826 60.531532 
L 176.293084 60.88224 
L 177.926341 62.82822 
L 179.559598 64.217576 
L 181.192855 60.203726 
L 182.826112 60.313692 
L 184.45937 71.051308 
L 186.092627 60.669822 
L 187.725884 63.847318 
L 189.359141 64.466664 
L 190.992398 63.853482 
L 192.625656 60.300171 
L 194.258913 60.758348 
L 195.89217 60.919337 
L 197.525427 56.848142 
L 199.158684 56.797681 
L 200.791942 57.831739 
L 202.425199 60.429372 
L 204.058456 60.297291 
L 205.691713 62.149864 
L 207.32497 62.265589 
L 208.958228 58.759657 
L 210.591485 59.533288 
L 212.224742 60.118507 
L 220.391028 60.118507 
L 222.024285 62.913327 
L 223.657542 59.652793 
L 225.290799 59.760217 
L 226.924057 58.859656 
L 228.557314 59.185865 
L 230.190571 57.82832 
L 231.823828 62.212676 
L 233.457085 59.438103 
L 235.090343 57.575115 
L 236.7236 57.705396 
L 238.356857 54.807201 
L 239.990114 57.953921 
L 241.623371 54.996897 
L 243.256629 55.144681 
L 244.889886 51.228378 
L 246.523143 45.595049 
L 249.789657 48.575065 
L 251.422915 45.411292 
L 253.056172 46.101459 
L 254.689429 47.030884 
L 256.322686 48.493783 
L 257.955943 46.969556 
L 259.589201 47.323257 
L 261.222458 46.873156 
L 262.855715 45.041259 
L 264.488972 45.938445 
L 267.755487 45.443418 
L 269.388744 43.983736 
L 271.022001 44.042768 
L 272.655258 44.239821 
L 274.288515 46.982177 
L 275.921772 44.409427 
L 277.55503 44.945286 
L 279.188287 45.821167 
L 280.821544 44.554398 
L 287.354573 44.804206 
L 290.621087 44.73667 
L 292.254344 44.687671 
L 293.887602 44.226772 
L 295.520859 44.383645 
L 297.154116 44.38639 
L 298.787373 43.884793 
L 300.42063 44.126435 
L 302.053888 43.884793 
L 303.687145 43.921104 
L 305.320402 44.198403 
L 306.953659 44.659302 
L 308.586916 44.659302 
L 310.220174 44.198403 
L 315.119945 44.198403 
L 316.753202 43.922746 
L 318.38646 44.198403 
L 321.652974 43.922746 
L 331.452517 43.922746 
L 333.085774 44.06765 
L 334.719032 44.343307 
L 336.352289 44.343307 
L 337.985546 43.130262 
L 346.151832 43.190734 
L 347.785089 42.740611 
L 349.418346 43.130262 
L 351.051603 42.854604 
L 357.584632 42.854604 
L 359.217889 43.074019 
L 362.484404 43.130262 
L 364.117661 42.778924 
L 369.017433 42.822726 
L 373.917204 42.862276 
L 377.183719 42.883198 
L 380.450233 42.705898 
L 383.716747 42.68907 
L 396.782805 42.645426 
L 398.416062 42.406798 
L 404.949091 42.37213 
L 404.949091 42.37213 
" clip-path="url(#p12f60db6bc)" style="fill: none; stroke: #2f4b7c; stroke-width: 0.7; stroke-linecap: square"/>
   </g>
   <g id="line2d_12">
    <path d="M 79.930909 146.094533 
L 81.564166 87.181849 
L 83.197423 90.634868 
L 84.830681 74.974427 
L 86.463938 83.951507 
L 88.097195 79.092552 
L 89.730452 92.990454 
L 91.363709 82.695717 
L 92.996967 90.166793 
L 94.630224 102.336127 
L 96.263481 108.815934 
L 97.896738 102.959591 
L 99.529995 91.953493 
L 101.163253 85.844102 
L 102.79651 78.013476 
L 104.429767 113.113069 
L 106.063024 103.79086 
L 107.696281 102.937454 
L 109.329539 92.282447 
L 110.962796 111.836761 
L 112.596053 124.012642 
L 114.22931 125.074485 
L 115.862567 128.630698 
L 117.495825 127.029081 
L 119.129082 123.524769 
L 120.762339 118.457692 
L 122.395596 98.033369 
L 124.028853 59.62258 
L 125.662111 85.730694 
L 127.295368 84.708289 
L 128.928625 82.129801 
L 130.561882 96.910109 
L 132.195139 98.328869 
L 133.828397 96.626622 
L 135.461654 90.465442 
L 137.094911 90.331764 
L 138.728168 83.227212 
L 140.361425 81.643435 
L 141.994683 90.044453 
L 143.62794 107.173958 
L 145.261197 92.183414 
L 146.894454 102.855856 
L 148.527711 84.033599 
L 150.160968 71.237764 
L 153.427483 79.282675 
L 155.06074 82.147304 
L 156.693997 75.908689 
L 158.327254 102.076938 
L 159.960512 79.651516 
L 161.593769 93.473873 
L 163.227026 88.388709 
L 164.860283 86.644123 
L 166.49354 87.117755 
L 168.126798 85.591167 
L 169.760055 88.817797 
L 171.393312 85.589232 
L 173.026569 71.443231 
L 174.659826 81.553424 
L 176.293084 103.398397 
L 177.926341 90.510459 
L 179.559598 94.77684 
L 181.192855 85.089435 
L 182.826112 85.44516 
L 184.45937 93.805728 
L 186.092627 79.837005 
L 187.725884 84.563947 
L 189.359141 86.342841 
L 190.992398 84.015264 
L 192.625656 81.05329 
L 194.258913 79.834598 
L 195.89217 81.111445 
L 197.525427 79.171809 
L 199.158684 80.764832 
L 200.791942 78.694127 
L 202.425199 77.054018 
L 204.058456 83.044715 
L 205.691713 83.017291 
L 207.32497 83.785478 
L 208.958228 77.780788 
L 212.224742 88.600542 
L 213.857999 86.072178 
L 215.491256 83.168899 
L 217.124513 81.380871 
L 218.757771 81.332637 
L 220.391028 88.777324 
L 222.024285 81.19536 
L 223.657542 81.143526 
L 225.290799 88.626953 
L 226.924057 79.273946 
L 228.557314 86.315934 
L 230.190571 87.309453 
L 231.823828 86.863267 
L 233.457085 91.191358 
L 235.090343 91.511605 
L 236.7236 78.876827 
L 238.356857 79.140673 
L 239.990114 86.580411 
L 241.623371 86.535799 
L 243.256629 88.287787 
L 244.889886 89.734848 
L 246.523143 85.521943 
L 248.1564 76.220184 
L 251.422915 76.280206 
L 253.056172 76.320589 
L 254.689429 83.826761 
L 256.322686 76.420431 
L 257.955943 77.121937 
L 259.589201 76.420431 
L 262.855715 76.420431 
L 264.488972 74.573866 
L 266.122229 76.231725 
L 267.755487 67.643463 
L 269.388744 76.354785 
L 271.022001 69.156981 
L 272.655258 69.143348 
L 274.288515 70.244178 
L 275.921772 69.137499 
L 277.55503 68.508366 
L 280.821544 68.514215 
L 282.454801 69.065058 
L 284.088058 69.443977 
L 285.721316 68.39759 
L 287.354573 69.287352 
L 288.98783 67.487738 
L 290.621087 68.245104 
L 292.254344 66.624185 
L 297.154116 66.637324 
L 298.787373 67.630415 
L 300.42063 68.146499 
L 302.053888 68.433631 
L 303.687145 67.843553 
L 305.320402 65.588912 
L 306.953659 66.680023 
L 308.586916 64.268734 
L 310.220174 60.563545 
L 311.853431 62.926217 
L 313.486688 60.559023 
L 315.119945 60.189193 
L 316.753202 59.270207 
L 318.38646 59.429194 
L 320.019717 55.123196 
L 321.652974 54.998382 
L 323.286231 55.524387 
L 326.552746 55.509607 
L 328.186003 55.737188 
L 331.452517 55.750304 
L 333.085774 56.214172 
L 334.719032 55.321936 
L 336.352289 53.640702 
L 337.985546 53.311861 
L 339.618803 53.382592 
L 341.25206 49.434726 
L 342.885317 50.085996 
L 344.518575 50.058797 
L 346.151832 47.680579 
L 347.785089 50.528087 
L 349.418346 51.085409 
L 351.051603 49.771193 
L 352.684861 49.771193 
L 354.318118 47.545258 
L 355.951375 47.836551 
L 357.584632 47.836551 
L 359.217889 48.45988 
L 360.851147 48.378193 
L 362.484404 48.484942 
L 364.117661 48.327282 
L 365.750918 47.953919 
L 369.017433 47.880533 
L 370.65069 47.914077 
L 372.283947 48.099116 
L 375.550461 47.85014 
L 380.450233 47.902288 
L 382.08349 47.6105 
L 383.716747 47.717249 
L 385.350005 46.736351 
L 386.983262 47.851782 
L 390.249776 47.929757 
L 391.883033 46.749647 
L 393.516291 46.538759 
L 396.782805 46.474349 
L 400.049319 46.474349 
L 401.682577 46.352662 
L 403.315834 46.474349 
L 404.949091 46.352662 
L 404.949091 46.352662 
" clip-path="url(#p12f60db6bc)" style="fill: none; stroke: #d62728; stroke-width: 0.7; stroke-linecap: square"/>
   </g>
   <g id="patch_3">
    <path d="M 63.68 168.28 
L 63.68 10.8 
" style="fill: none; stroke: #000000; stroke-width: 0.8; stroke-linejoin: miter; stroke-linecap: square"/>
   </g>
   <g id="patch_4">
    <path d="M 421.2 168.28 
L 421.2 10.8 
" style="fill: none; stroke: #000000; stroke-width: 0.8; stroke-linejoin: miter; stroke-linecap: square"/>
   </g>
   <g id="patch_5">
    <path d="M 63.68 168.28 
L 421.2 168.28 
" style="fill: none; stroke: #000000; stroke-width: 0.8; stroke-linejoin: miter; stroke-linecap: square"/>
   </g>
   <g id="patch_6">
    <path d="M 63.68 10.8 
L 421.2 10.8 
" style="fill: none; stroke: #000000; stroke-width: 0.8; stroke-linejoin: miter; stroke-linecap: square"/>
   </g>
   <g id="legend_1">
    <g id="patch_7">
     <path d="M 116.6275 37.366875 
L 368.2525 37.366875 
Q 370.6525 37.366875 370.6525 34.966875 
L 370.6525 19.2 
Q 370.6525 16.8 368.2525 16.8 
L 116.6275 16.8 
Q 114.2275 16.8 114.2275 19.2 
L 114.2275 34.966875 
Q 114.2275 37.366875 116.6275 37.366875 
z
" style="fill: #ffffff; opacity: 0.8; stroke: #cccccc; stroke-linejoin: miter"/>
    </g>
    <g id="line2d_13">
     <path d="M 119.0275 25.8 
L 131.0275 25.8 
L 143.0275 25.8 
" style="fill: none; stroke: #003f5c; stroke-width: 0.7; stroke-linecap: square"/>
    </g>
    <g id="text_12">
     <!-- 13Bus -->
     <g transform="translate(152.6275 30) scale(0.12 -0.12)">
      <defs>
       <path id="TimesNewRomanPSMT-33" d="M 325 3431 
Q 506 3859 782 4092 
Q 1059 4325 1472 4325 
Q 1981 4325 2253 3994 
Q 2459 3747 2459 3466 
Q 2459 3003 1878 2509 
Q 2269 2356 2469 2072 
Q 2669 1788 2669 1403 
Q 2669 853 2319 450 
Q 1863 -75 997 -75 
Q 569 -75 414 31 
Q 259 138 259 259 
Q 259 350 332 419 
Q 406 488 509 488 
Q 588 488 669 463 
Q 722 447 909 348 
Q 1097 250 1169 231 
Q 1284 197 1416 197 
Q 1734 197 1970 444 
Q 2206 691 2206 1028 
Q 2206 1275 2097 1509 
Q 2016 1684 1919 1775 
Q 1784 1900 1550 2001 
Q 1316 2103 1072 2103 
L 972 2103 
L 972 2197 
Q 1219 2228 1467 2375 
Q 1716 2522 1828 2728 
Q 1941 2934 1941 3181 
Q 1941 3503 1739 3701 
Q 1538 3900 1238 3900 
Q 753 3900 428 3381 
L 325 3431 
z
" transform="scale(0.015625)"/>
       <path id="TimesNewRomanPSMT-42" d="M 2956 2163 
Q 3397 2069 3616 1863 
Q 3919 1575 3919 1159 
Q 3919 844 3719 555 
Q 3519 266 3170 133 
Q 2822 0 2106 0 
L 106 0 
L 106 116 
L 266 116 
Q 531 116 647 284 
Q 719 394 719 750 
L 719 3488 
Q 719 3881 628 3984 
Q 506 4122 266 4122 
L 106 4122 
L 106 4238 
L 1938 4238 
Q 2450 4238 2759 4163 
Q 3228 4050 3475 3764 
Q 3722 3478 3722 3106 
Q 3722 2788 3528 2536 
Q 3334 2284 2956 2163 
z
M 1319 2331 
Q 1434 2309 1582 2298 
Q 1731 2288 1909 2288 
Q 2366 2288 2595 2386 
Q 2825 2484 2947 2687 
Q 3069 2891 3069 3131 
Q 3069 3503 2766 3765 
Q 2463 4028 1881 4028 
Q 1569 4028 1319 3959 
L 1319 2331 
z
M 1319 306 
Q 1681 222 2034 222 
Q 2600 222 2897 476 
Q 3194 731 3194 1106 
Q 3194 1353 3059 1581 
Q 2925 1809 2622 1940 
Q 2319 2072 1872 2072 
Q 1678 2072 1540 2065 
Q 1403 2059 1319 2044 
L 1319 306 
z
" transform="scale(0.015625)"/>
      </defs>
      <use xlink:href="#TimesNewRomanPSMT-31"/>
      <use xlink:href="#TimesNewRomanPSMT-33" x="50"/>
      <use xlink:href="#TimesNewRomanPSMT-42" x="100"/>
      <use xlink:href="#TimesNewRomanPSMT-75" x="166.699219"/>
      <use xlink:href="#TimesNewRomanPSMT-73" x="216.699219"/>
     </g>
    </g>
    <g id="line2d_14">
     <path d="M 207.3025 25.8 
L 219.3025 25.8 
L 231.3025 25.8 
" style="fill: none; stroke: #2f4b7c; stroke-width: 0.7; stroke-linecap: square"/>
    </g>
    <g id="text_13">
     <!-- 34Bus -->
     <g transform="translate(240.9025 30) scale(0.12 -0.12)">
      <use xlink:href="#TimesNewRomanPSMT-33"/>
      <use xlink:href="#TimesNewRomanPSMT-34" x="50"/>
      <use xlink:href="#TimesNewRomanPSMT-42" x="100"/>
      <use xlink:href="#TimesNewRomanPSMT-75" x="166.699219"/>
      <use xlink:href="#TimesNewRomanPSMT-73" x="216.699219"/>
     </g>
    </g>
    <g id="line2d_15">
     <path d="M 295.5775 25.8 
L 307.5775 25.8 
L 319.5775 25.8 
" style="fill: none; stroke: #d62728; stroke-width: 0.7; stroke-linecap: square"/>
    </g>
    <g id="text_14">
     <!-- 123Bus -->
     <g transform="translate(329.1775 30) scale(0.12 -0.12)">
      <use xlink:href="#TimesNewRomanPSMT-31"/>
      <use xlink:href="#TimesNewRomanPSMT-32" x="50"/>
      <use xlink:href="#TimesNewRomanPSMT-33" x="100"/>
      <use xlink:href="#TimesNewRomanPSMT-42" x="150"/>
      <use xlink:href="#TimesNewRomanPSMT-75" x="216.699219"/>
      <use xlink:href="#TimesNewRomanPSMT-73" x="266.699219"/>
     </g>
    </g>
   </g>
  </g>
 </g>
 <defs>
  <clipPath id="p12f60db6bc">
   <rect x="63.68" y="10.8" width="357.52" height="157.48"/>
  </clipPath>
 </defs>
</svg>
