<?xml version="1.0" encoding="utf-8" standalone="no"?>
<!DOCTYPE svg PUBLIC "-//W3C//DTD SVG 1.1//EN"
  "http://www.w3.org/Graphics/SVG/1.1/DTD/svg11.dtd">
<svg xmlns:xlink="http://www.w3.org/1999/xlink" width="432pt" height="216pt" viewBox="0 0 432 216" xmlns="http://www.w3.org/2000/svg" version="1.1">
 <metadata>
  <rdf:RDF xmlns:dc="http://purl.org/dc/elements/1.1/" xmlns:cc="http://creativecommons.org/ns#" xmlns:rdf="http://www.w3.org/1999/02/22-rdf-syntax-ns#">
   <cc:Work>
    <dc:type rdf:resource="http://purl.org/dc/dcmitype/StillImage"/>
    <dc:date>2025-04-13T13:44:08.256964</dc:date>
    <dc:format>image/svg+xml</dc:format>
    <dc:creator>
     <cc:Agent>
      <dc:title>Matplotlib v3.9.1, https://matplotlib.org/</dc:title>
     </cc:Agent>
    </dc:creator>
   </cc:Work>
  </rdf:RDF>
 </metadata>
 <defs>
  <style type="text/css">*{stroke-linejoin: round; stroke-linecap: butt}</style>
 </defs>
 <g id="figure_1">
  <g id="patch_1">
   <path d="M 0 216 
L 432 216 
L 432 0 
L 0 0 
z
" style="fill: #ffffff"/>
  </g>
  <g id="axes_1">
   <g id="patch_2">
    <path d="M 63.68 168.28 
L 421.2 168.28 
L 421.2 10.8 
L 63.68 10.8 
z
" style="fill: #ffffff"/>
   </g>
   <g id="PolyCollection_1">
    <defs>
     <path id="m7ac94c21c4" d="M 79.930909 -160.121597 
L 79.930909 -153.491914 
L 81.564166 -164.300127 
L 83.197423 -159.266459 
L 84.830681 -158.310712 
L 86.463938 -165.133826 
L 88.097195 -167.937577 
L 89.730452 -170.336695 
L 91.363709 -171.448391 
L 92.996967 -170.367876 
L 94.630224 -172.15082 
L 96.263481 -170.293501 
L 97.896738 -171.81442 
L 99.529995 -170.114131 
L 101.163253 -168.963807 
L 102.79651 -169.056855 
L 104.429767 -169.307046 
L 106.063024 -172.680762 
L 107.696281 -172.972573 
L 109.329539 -172.972573 
L 110.962796 -173.1757 
L 112.596053 -173.045644 
L 114.22931 -173.391065 
L 115.862567 -173.339839 
L 117.495825 -173.057005 
L 119.129082 -172.846679 
L 120.762339 -172.8011 
L 122.395596 -173.17615 
L 124.028853 -172.93534 
L 125.662111 -172.903507 
L 127.295368 -172.903507 
L 128.928625 -172.873675 
L 130.561882 -172.873675 
L 132.195139 -172.834238 
L 133.828397 -173.015902 
L 135.461654 -172.516196 
L 137.094911 -172.25046 
L 138.728168 -172.09235 
L 140.361425 -172.131787 
L 141.994683 -172.200111 
L 143.62794 -170.714872 
L 145.261197 -171.350214 
L 146.894454 -173.256622 
L 148.527711 -171.573836 
L 150.160968 -173.315092 
L 151.794226 -173.579951 
L 153.427483 -171.636175 
L 155.06074 -171.818717 
L 156.693997 -173.598106 
L 158.327254 -173.459141 
L 159.960512 -173.459141 
L 161.593769 -173.459141 
L 163.227026 -173.517611 
L 164.860283 -173.458646 
L 166.49354 -173.4712 
L 168.126798 -173.4712 
L 169.760055 -172.601955 
L 171.393312 -173.398421 
L 173.026569 -173.398421 
L 174.659826 -172.637051 
L 176.293084 -173.506678 
L 177.926341 -172.587264 
L 179.559598 -173.456891 
L 181.192855 -173.48733 
L 182.826112 -173.511289 
L 184.45937 -173.497994 
L 186.092627 -173.497994 
L 187.725884 -173.629444 
L 189.359141 -173.249963 
L 190.992398 -173.256419 
L 192.625656 -173.392482 
L 194.258913 -173.392482 
L 195.89217 -173.392482 
L 197.525427 -173.716733 
L 199.158684 -173.775698 
L 200.791942 -173.775698 
L 202.425199 -173.775698 
L 204.058456 -173.806137 
L 205.691713 -173.775698 
L 207.32497 -173.693021 
L 208.958228 -173.693021 
L 210.591485 -173.806137 
L 212.224742 -173.806137 
L 213.857999 -173.775698 
L 215.491256 -173.956013 
L 217.124513 -173.956013 
L 218.757771 -173.925574 
L 220.391028 -173.956013 
L 222.024285 -173.925574 
L 223.657542 -173.775698 
L 225.290799 -173.725192 
L 226.924057 -173.558556 
L 228.557314 -173.669759 
L 230.190571 -173.669759 
L 231.823828 -173.698511 
L 233.457085 -173.669759 
L 235.090343 -173.669759 
L 236.7236 -173.639321 
L 238.356857 -173.639321 
L 239.990114 -173.669759 
L 241.623371 -173.698511 
L 243.256629 -173.562448 
L 244.889886 -173.725192 
L 246.523143 -173.698511 
L 248.1564 -173.725192 
L 249.789657 -173.58913 
L 251.422915 -173.58913 
L 253.056172 -174.33455 
L 254.689429 -174.33455 
L 256.322686 -173.725192 
L 257.955943 -173.725192 
L 259.589201 -173.725192 
L 261.222458 -173.725192 
L 262.855715 -173.58913 
L 264.488972 -174.198487 
L 266.122229 -174.228926 
L 267.755487 -173.619568 
L 269.388744 -174.228926 
L 271.022001 -174.198487 
L 272.655258 -173.58913 
L 274.288515 -173.619568 
L 275.921772 -173.619568 
L 277.55503 -173.619568 
L 279.188287 -173.619568 
L 280.821544 -173.58913 
L 282.454801 -173.58913 
L 284.088058 -173.58913 
L 285.721316 -173.58913 
L 287.354573 -173.58913 
L 288.98783 -173.58913 
L 290.621087 -173.58913 
L 292.254344 -173.58913 
L 293.887602 -173.619568 
L 295.520859 -173.619568 
L 297.154116 -173.58913 
L 298.787373 -173.58913 
L 300.42063 -173.58913 
L 302.053888 -173.58913 
L 303.687145 -173.58913 
L 305.320402 -173.58913 
L 306.953659 -173.58913 
L 308.586916 -173.58913 
L 310.220174 -173.58913 
L 311.853431 -173.58913 
L 313.486688 -173.58913 
L 315.119945 -173.58913 
L 316.753202 -173.619568 
L 318.38646 -173.619568 
L 320.019717 -173.619568 
L 321.652974 -173.619568 
L 323.286231 -173.619568 
L 324.919488 -173.619568 
L 326.552746 -173.619568 
L 328.186003 -173.58913 
L 329.81926 -173.58913 
L 331.452517 -173.58913 
L 333.085774 -173.58913 
L 334.719032 -173.58913 
L 336.352289 -173.58913 
L 337.985546 -173.58913 
L 339.618803 -173.58913 
L 341.25206 -173.58913 
L 342.885317 -173.58913 
L 344.518575 -173.58913 
L 346.151832 -173.58913 
L 347.785089 -173.58913 
L 349.418346 -173.58913 
L 351.051603 -173.58913 
L 352.684861 -173.58913 
L 354.318118 -173.58913 
L 355.951375 -173.58913 
L 357.584632 -173.58913 
L 359.217889 -173.58913 
L 360.851147 -173.58913 
L 362.484404 -173.58913 
L 364.117661 -173.58913 
L 365.750918 -173.58913 
L 367.384175 -173.58913 
L 369.017433 -173.58913 
L 370.65069 -173.58913 
L 372.283947 -173.58913 
L 373.917204 -173.58913 
L 375.550461 -173.58913 
L 377.183719 -173.58913 
L 378.816976 -173.58913 
L 380.450233 -173.58913 
L 382.08349 -173.58913 
L 383.716747 -173.58913 
L 385.350005 -173.58913 
L 386.983262 -173.58913 
L 388.616519 -173.58913 
L 390.249776 -173.58913 
L 391.883033 -173.58913 
L 393.516291 -173.58913 
L 395.149548 -173.58913 
L 396.782805 -173.58913 
L 398.416062 -173.58913 
L 400.049319 -173.58913 
L 401.682577 -173.58913 
L 403.315834 -173.58913 
L 404.949091 -173.58913 
L 404.949091 -175.875289 
L 404.949091 -175.875289 
L 403.315834 -175.875289 
L 401.682577 -175.875289 
L 400.049319 -175.875289 
L 398.416062 -175.875289 
L 396.782805 -175.875289 
L 395.149548 -175.875289 
L 393.516291 -175.875289 
L 391.883033 -175.875289 
L 390.249776 -175.875289 
L 388.616519 -175.875289 
L 386.983262 -175.875289 
L 385.350005 -175.875289 
L 383.716747 -175.875289 
L 382.08349 -175.875289 
L 380.450233 -175.875289 
L 378.816976 -175.875289 
L 377.183719 -175.875289 
L 375.550461 -175.875289 
L 373.917204 -175.875289 
L 372.283947 -175.875289 
L 370.65069 -175.875289 
L 369.017433 -175.875289 
L 367.384175 -175.875289 
L 365.750918 -175.875289 
L 364.117661 -175.875289 
L 362.484404 -175.875289 
L 360.851147 -175.875289 
L 359.217889 -175.875289 
L 357.584632 -175.875289 
L 355.951375 -175.875289 
L 354.318118 -175.875289 
L 352.684861 -175.875289 
L 351.051603 -175.875289 
L 349.418346 -175.875289 
L 347.785089 -175.875289 
L 346.151832 -175.875289 
L 344.518575 -175.875289 
L 342.885317 -175.875289 
L 341.25206 -175.875289 
L 339.618803 -175.875289 
L 337.985546 -175.875289 
L 336.352289 -175.875289 
L 334.719032 -175.875289 
L 333.085774 -175.875289 
L 331.452517 -175.875289 
L 329.81926 -175.875289 
L 328.186003 -175.875289 
L 326.552746 -175.897854 
L 324.919488 -175.897854 
L 323.286231 -175.897854 
L 321.652974 -175.897854 
L 320.019717 -175.897854 
L 318.38646 -175.897854 
L 316.753202 -175.897854 
L 315.119945 -175.875289 
L 313.486688 -175.875289 
L 311.853431 -175.875289 
L 310.220174 -175.875289 
L 308.586916 -175.875289 
L 306.953659 -175.875289 
L 305.320402 -175.875289 
L 303.687145 -175.875289 
L 302.053888 -175.875289 
L 300.42063 -175.875289 
L 298.787373 -175.875289 
L 297.154116 -175.875289 
L 295.520859 -175.897854 
L 293.887602 -175.897854 
L 292.254344 -175.875289 
L 290.621087 -175.875289 
L 288.98783 -175.875289 
L 287.354573 -175.875289 
L 285.721316 -175.875289 
L 284.088058 -175.875289 
L 282.454801 -175.875289 
L 280.821544 -175.875289 
L 279.188287 -175.897854 
L 277.55503 -175.897854 
L 275.921772 -175.897854 
L 274.288515 -175.897854 
L 272.655258 -175.875289 
L 271.022001 -176.407482 
L 269.388744 -176.430046 
L 267.755487 -175.897854 
L 266.122229 -176.430046 
L 264.488972 -176.407482 
L 262.855715 -175.875289 
L 261.222458 -176.069395 
L 259.589201 -176.069395 
L 257.955943 -176.069395 
L 256.322686 -176.069395 
L 254.689429 -176.601587 
L 253.056172 -176.601587 
L 251.422915 -175.875289 
L 249.789657 -175.875289 
L 248.1564 -176.069395 
L 246.523143 -176.029215 
L 244.889886 -176.069395 
L 243.256629 -175.835109 
L 241.623371 -176.029215 
L 239.990114 -175.996864 
L 238.356857 -175.974299 
L 236.7236 -175.974299 
L 235.090343 -175.996864 
L 233.457085 -175.996864 
L 231.823828 -176.029215 
L 230.190571 -175.996864 
L 228.557314 -175.996864 
L 226.924057 -176.040891 
L 225.290799 -176.069395 
L 223.657542 -176.263207 
L 222.024285 -176.2835 
L 220.391028 -176.306065 
L 218.757771 -176.2835 
L 217.124513 -176.306065 
L 215.491256 -176.306065 
L 213.857999 -176.263207 
L 212.224742 -176.285772 
L 210.591485 -176.285772 
L 208.958228 -176.167032 
L 207.32497 -176.167032 
L 205.691713 -176.263207 
L 204.058456 -176.285772 
L 202.425199 -176.263207 
L 200.791942 -176.263207 
L 199.158684 -176.263207 
L 197.525427 -176.190519 
L 195.89217 -175.846245 
L 194.258913 -175.846245 
L 192.625656 -175.846245 
L 190.992398 -175.65214 
L 189.359141 -175.578192 
L 187.725884 -176.022691 
L 186.092627 -175.900239 
L 184.45937 -175.900239 
L 182.826112 -175.899811 
L 181.192855 -175.796212 
L 179.559598 -175.773647 
L 177.926341 -175.713467 
L 176.293084 -175.828158 
L 174.659826 -175.767978 
L 173.026569 -175.728225 
L 171.393312 -175.728225 
L 169.760055 -175.718934 
L 168.126798 -175.787955 
L 166.49354 -175.787955 
L 164.860283 -175.781701 
L 163.227026 -175.854389 
L 161.593769 -175.808968 
L 159.960512 -175.808968 
L 158.327254 -175.808968 
L 156.693997 -175.995626 
L 155.06074 -175.005437 
L 153.427483 -175.091511 
L 151.794226 -175.915154 
L 150.160968 -175.939159 
L 148.527711 -175.030747 
L 146.894454 -175.893737 
L 145.261197 -174.816574 
L 143.62794 -175.087867 
L 141.994683 -175.630925 
L 140.361425 -175.560127 
L 138.728168 -175.563209 
L 137.094911 -175.753715 
L 135.461654 -175.173333 
L 133.828397 -175.705211 
L 132.195139 -175.53277 
L 130.561882 -175.529688 
L 128.928625 -175.529688 
L 127.295368 -175.552545 
L 125.662111 -175.552545 
L 124.028853 -175.590453 
L 122.395596 -175.808315 
L 120.762339 -175.704806 
L 119.129082 -175.683119 
L 117.495825 -175.799181 
L 115.862567 -175.896414 
L 114.22931 -175.939991 
L 112.596053 -175.603794 
L 110.962796 -175.698979 
L 109.329539 -175.784041 
L 107.696281 -175.784041 
L 106.063024 -175.461184 
L 104.429767 -173.596126 
L 102.79651 -172.801505 
L 101.163253 -172.764924 
L 99.529995 -173.86193 
L 97.896738 -175.311376 
L 96.263481 -173.8386 
L 94.630224 -175.685346 
L 92.996967 -174.085754 
L 91.363709 -175.414413 
L 89.730452 -173.56571 
L 88.097195 -171.980314 
L 86.463938 -170.30007 
L 84.830681 -164.146696 
L 83.197423 -164.740913 
L 81.564166 -169.392355 
L 79.930909 -160.121597 
z
" style="stroke: #ff7c00; stroke-opacity: 0.5"/>
    </defs>
    <g clip-path="url(#p9e31555939)">
     <use xlink:href="#m7ac94c21c4" x="0" y="216" style="fill: #ff7c00; fill-opacity: 0.5; stroke: #ff7c00; stroke-opacity: 0.5"/>
    </g>
   </g>
   <g id="PolyCollection_2">
    <defs>
     <path id="m981c1e855e" d="M 79.930909 -137.164523 
L 79.930909 -130.84665 
L 81.564166 -113.342793 
L 83.197423 -133.912471 
L 84.830681 -132.530134 
L 86.463938 -144.4547 
L 88.097195 -146.300163 
L 89.730452 -136.102815 
L 91.363709 -140.176575 
L 92.996967 -141.883839 
L 94.630224 -140.249489 
L 96.263481 -144.349728 
L 97.896738 -130.190904 
L 99.529995 -137.714218 
L 101.163253 -142.322578 
L 102.79651 -140.509511 
L 104.429767 -143.351732 
L 106.063024 -136.923759 
L 107.696281 -136.074042 
L 109.329539 -120.932452 
L 110.962796 -126.333161 
L 112.596053 -130.73448 
L 114.22931 -128.110908 
L 115.862567 -124.716606 
L 117.495825 -137.667199 
L 119.129082 -131.186762 
L 120.762339 -129.730095 
L 122.395596 -129.689307 
L 124.028853 -133.260144 
L 125.662111 -125.600564 
L 127.295368 -129.166541 
L 128.928625 -114.455862 
L 130.561882 -109.361879 
L 132.195139 -111.952245 
L 133.828397 -115.201125 
L 135.461654 -120.409753 
L 137.094911 -117.790906 
L 138.728168 -121.015399 
L 140.361425 -128.561368 
L 141.994683 -130.528563 
L 143.62794 -137.223398 
L 145.261197 -135.413278 
L 146.894454 -139.085802 
L 148.527711 -148.611137 
L 150.160968 -131.709596 
L 151.794226 -138.74191 
L 153.427483 -141.797472 
L 155.06074 -150.660492 
L 156.693997 -149.656579 
L 158.327254 -149.656579 
L 159.960512 -149.615567 
L 161.593769 -144.322709 
L 163.227026 -142.73603 
L 164.860283 -142.73603 
L 166.49354 -145.952334 
L 168.126798 -145.952334 
L 169.760055 -146.94943 
L 171.393312 -150.256083 
L 173.026569 -151.510456 
L 174.659826 -146.95159 
L 176.293084 -142.929708 
L 177.926341 -144.067029 
L 179.559598 -144.755666 
L 181.192855 -147.511476 
L 182.826112 -149.657209 
L 184.45937 -146.881421 
L 186.092627 -144.599986 
L 187.725884 -143.875578 
L 189.359141 -147.744907 
L 190.992398 -144.833417 
L 192.625656 -150.042405 
L 194.258913 -151.451109 
L 195.89217 -150.167309 
L 197.525427 -149.8274 
L 199.158684 -149.8274 
L 200.791942 -149.570595 
L 202.425199 -150.854394 
L 204.058456 -150.042405 
L 205.691713 -147.840205 
L 207.32497 -151.476373 
L 208.958228 -151.476373 
L 210.591485 -151.476373 
L 212.224742 -150.957611 
L 213.857999 -150.957611 
L 215.491256 -150.957611 
L 217.124513 -151.610568 
L 218.757771 -150.284114 
L 220.391028 -151.612098 
L 222.024285 -151.612098 
L 223.657542 -149.673812 
L 225.290799 -152.482648 
L 226.924057 -150.544361 
L 228.557314 -148.839933 
L 230.190571 -145.126284 
L 231.823828 -141.89457 
L 233.457085 -142.415019 
L 235.090343 -151.153606 
L 236.7236 -153.01277 
L 238.356857 -153.01277 
L 239.990114 -154.897986 
L 241.623371 -152.055404 
L 243.256629 -157.648599 
L 244.889886 -154.466806 
L 246.523143 -146.691951 
L 248.1564 -147.060544 
L 249.789657 -148.9427 
L 251.422915 -145.684618 
L 253.056172 -147.060544 
L 254.689429 -148.062679 
L 256.322686 -148.062679 
L 257.955943 -149.927782 
L 259.589201 -149.840111 
L 261.222458 -149.570482 
L 262.855715 -153.611937 
L 264.488972 -155.862686 
L 266.122229 -155.862686 
L 267.755487 -162.314439 
L 269.388744 -162.314439 
L 271.022001 -161.429334 
L 272.655258 -161.429334 
L 274.288515 -163.603638 
L 275.921772 -163.603638 
L 277.55503 -163.569375 
L 279.188287 -163.976078 
L 280.821544 -161.801774 
L 282.454801 -164.254548 
L 284.088058 -162.080244 
L 285.721316 -163.976078 
L 287.354573 -163.976078 
L 288.98783 -163.887102 
L 290.621087 -162.318646 
L 292.254344 -162.22967 
L 293.887602 -156.77859 
L 295.520859 -162.318646 
L 297.154116 -162.675586 
L 298.787373 -162.675586 
L 300.42063 -162.571469 
L 302.053888 -162.675586 
L 303.687145 -162.675586 
L 305.320402 -162.675586 
L 306.953659 -162.675586 
L 308.586916 -163.034775 
L 310.220174 -163.034775 
L 311.853431 -162.65851 
L 313.486688 -162.930658 
L 315.119945 -162.299321 
L 316.753202 -162.675586 
L 318.38646 -163.034775 
L 320.019717 -163.034775 
L 321.652974 -162.601165 
L 323.286231 -162.601165 
L 324.919488 -162.601165 
L 326.552746 -162.601165 
L 328.186003 -162.601165 
L 329.81926 -162.601165 
L 331.452517 -162.601165 
L 333.085774 -162.232572 
L 334.719032 -162.232572 
L 336.352289 -162.601165 
L 337.985546 -162.601165 
L 339.618803 -162.601165 
L 341.25206 -162.675586 
L 342.885317 -162.675586 
L 344.518575 -162.601165 
L 346.151832 -162.232572 
L 347.785089 -162.601165 
L 349.418346 -162.675586 
L 351.051603 -162.601165 
L 352.684861 -162.675586 
L 354.318118 -162.675586 
L 355.951375 -162.675586 
L 357.584632 -162.675586 
L 359.217889 -162.675586 
L 360.851147 -162.675586 
L 362.484404 -162.675586 
L 364.117661 -162.571469 
L 365.750918 -162.571469 
L 367.384175 -162.571469 
L 369.017433 -162.675586 
L 370.65069 -162.675586 
L 372.283947 -162.675586 
L 373.917204 -162.675586 
L 375.550461 -162.675586 
L 377.183719 -162.675586 
L 378.816976 -162.675586 
L 380.450233 -162.675586 
L 382.08349 -162.571469 
L 383.716747 -162.571469 
L 385.350005 -162.675586 
L 386.983262 -162.675586 
L 388.616519 -162.675586 
L 390.249776 -162.675586 
L 391.883033 -162.675586 
L 393.516291 -162.675586 
L 395.149548 -162.675586 
L 396.782805 -162.653898 
L 398.416062 -162.653898 
L 400.049319 -162.653898 
L 401.682577 -162.653898 
L 403.315834 -162.653898 
L 404.949091 -162.675586 
L 404.949091 -168.093573 
L 404.949091 -168.093573 
L 403.315834 -168.308555 
L 401.682577 -168.308555 
L 400.049319 -168.308555 
L 398.416062 -168.308555 
L 396.782805 -168.308555 
L 395.149548 -168.093573 
L 393.516291 -168.093573 
L 391.883033 -168.093573 
L 390.249776 -168.093573 
L 388.616519 -168.093573 
L 386.983262 -168.093573 
L 385.350005 -168.093573 
L 383.716747 -167.986081 
L 382.08349 -167.986081 
L 380.450233 -168.093573 
L 378.816976 -168.093573 
L 377.183719 -168.093573 
L 375.550461 -168.093573 
L 373.917204 -168.093573 
L 372.283947 -168.093573 
L 370.65069 -168.093573 
L 369.017433 -168.093573 
L 367.384175 -167.986081 
L 365.750918 -167.986081 
L 364.117661 -167.986081 
L 362.484404 -168.093573 
L 360.851147 -168.093573 
L 359.217889 -168.093573 
L 357.584632 -168.093573 
L 355.951375 -168.093573 
L 354.318118 -168.093573 
L 352.684861 -168.093573 
L 351.051603 -168.148061 
L 349.418346 -168.093573 
L 347.785089 -168.148061 
L 346.151832 -167.891503 
L 344.518575 -168.148061 
L 342.885317 -168.093573 
L 341.25206 -168.093573 
L 339.618803 -168.148061 
L 337.985546 -168.148061 
L 336.352289 -168.148061 
L 334.719032 -167.891503 
L 333.085774 -167.891503 
L 331.452517 -168.148061 
L 329.81926 -168.148061 
L 328.186003 -168.148061 
L 326.552746 -168.148061 
L 324.919488 -168.148061 
L 323.286231 -168.148061 
L 321.652974 -168.148061 
L 320.019717 -168.078859 
L 318.38646 -168.078859 
L 316.753202 -168.093573 
L 315.119945 -167.001224 
L 313.486688 -167.971368 
L 311.853431 -166.986511 
L 310.220174 -168.078859 
L 308.586916 -168.078859 
L 306.953659 -168.093573 
L 305.320402 -168.093573 
L 303.687145 -168.093573 
L 302.053888 -168.093573 
L 300.42063 -167.986081 
L 298.787373 -168.093573 
L 297.154116 -168.093573 
L 295.520859 -167.847319 
L 293.887602 -163.006474 
L 292.254344 -167.727522 
L 290.621087 -167.847319 
L 288.98783 -169.0214 
L 287.354573 -169.141197 
L 285.721316 -169.141197 
L 284.088058 -166.278885 
L 282.454801 -169.312805 
L 280.821544 -166.107277 
L 279.188287 -169.141197 
L 277.55503 -168.99591 
L 275.921772 -168.714989 
L 274.288515 -168.714989 
L 272.655258 -165.681069 
L 271.022001 -165.681069 
L 269.388744 -166.286085 
L 267.755487 -166.286085 
L 266.122229 -160.881124 
L 264.488972 -160.881124 
L 262.855715 -158.955683 
L 261.222458 -155.438187 
L 259.589201 -155.708715 
L 257.955943 -155.65623 
L 256.322686 -153.888314 
L 254.689429 -153.888314 
L 253.056172 -153.403838 
L 251.422915 -152.033762 
L 249.789657 -155.072721 
L 248.1564 -153.403838 
L 246.523143 -153.147281 
L 244.889886 -159.661846 
L 243.256629 -161.975699 
L 241.623371 -156.89409 
L 239.990114 -160.148594 
L 238.356857 -158.17204 
L 236.7236 -158.17204 
L 235.090343 -156.593641 
L 233.457085 -148.119169 
L 231.823828 -148.220991 
L 230.190571 -151.85608 
L 228.557314 -154.989752 
L 226.924057 -156.602842 
L 225.290799 -158.364301 
L 223.657542 -155.304847 
L 222.024285 -157.066305 
L 220.391028 -157.066305 
L 218.757771 -155.982866 
L 217.124513 -157.38896 
L 215.491256 -156.619917 
L 213.857999 -156.619917 
L 212.224742 -156.619917 
L 210.591485 -157.266013 
L 208.958228 -157.266013 
L 207.32497 -157.266013 
L 205.691713 -153.635244 
L 204.058456 -155.561404 
L 202.425199 -156.926823 
L 200.791942 -155.611753 
L 199.158684 -155.879806 
L 197.525427 -155.879806 
L 195.89217 -156.176971 
L 194.258913 -157.492041 
L 192.625656 -155.561404 
L 190.992398 -149.823958 
L 189.359141 -152.740847 
L 187.725884 -149.480291 
L 186.092627 -149.53091 
L 184.45937 -151.869938 
L 182.826112 -155.59398 
L 181.192855 -152.4478 
L 179.559598 -149.657794 
L 177.926341 -149.125961 
L 176.293084 -148.240609 
L 174.659826 -153.584648 
L 173.026569 -157.596833 
L 171.393312 -156.113664 
L 169.760055 -152.566517 
L 168.126798 -152.107778 
L 166.49354 -152.107778 
L 164.860283 -148.954241 
L 163.227026 -148.954241 
L 161.593769 -150.566341 
L 159.960512 -155.838276 
L 158.327254 -155.827995 
L 156.693997 -155.827995 
L 155.06074 -157.089725 
L 153.427483 -148.643128 
L 151.794226 -145.554045 
L 150.160968 -137.62342 
L 148.527711 -155.478615 
L 146.894454 -147.351702 
L 145.261197 -143.505275 
L 143.62794 -144.360842 
L 141.994683 -138.70785 
L 140.361425 -135.601849 
L 138.728168 -128.070953 
L 137.094911 -125.575142 
L 135.461654 -127.659458 
L 133.828397 -123.059827 
L 132.195139 -120.567301 
L 130.561882 -117.719343 
L 128.928625 -122.695441 
L 127.295368 -137.25044 
L 125.662111 -133.246218 
L 124.028853 -140.832907 
L 122.395596 -137.074444 
L 120.762339 -137.609494 
L 119.129082 -139.104632 
L 117.495825 -144.980795 
L 115.862567 -132.469572 
L 114.22931 -135.500769 
L 112.596053 -137.512194 
L 110.962796 -133.564643 
L 109.329539 -128.814551 
L 107.696281 -142.259406 
L 106.063024 -144.339942 
L 104.429767 -150.241932 
L 102.79651 -147.183063 
L 101.163253 -148.783082 
L 99.529995 -143.72613 
L 97.896738 -138.023959 
L 96.263481 -152.078621 
L 94.630224 -147.455324 
L 92.996967 -148.542993 
L 91.363709 -146.749566 
L 89.730452 -144.468378 
L 88.097195 -153.787887 
L 86.463938 -151.351199 
L 84.830681 -140.75239 
L 83.197423 -143.144624 
L 81.564166 -120.677762 
L 79.930909 -137.164523 
z
" style="stroke: #7ad6c1; stroke-opacity: 0.5"/>
    </defs>
    <g clip-path="url(#p9e31555939)">
     <use xlink:href="#m981c1e855e" x="0" y="216" style="fill: #7ad6c1; fill-opacity: 0.5; stroke: #7ad6c1; stroke-opacity: 0.5"/>
    </g>
   </g>
   <g id="PolyCollection_3">
    <defs>
     <path id="m91b49612d2" d="M 79.930909 -73.804087 
L 79.930909 -63.319069 
L 81.564166 -130.92773 
L 83.197423 -143.776568 
L 84.830681 -137.646389 
L 86.463938 -122.471729 
L 88.097195 -141.245347 
L 89.730452 -130.751285 
L 91.363709 -124.811882 
L 92.996967 -124.366686 
L 94.630224 -123.885989 
L 96.263481 -123.875416 
L 97.896738 -125.227876 
L 99.529995 -125.737954 
L 101.163253 -130.693265 
L 102.79651 -103.974196 
L 104.429767 -108.770519 
L 106.063024 -130.873692 
L 107.696281 -125.169654 
L 109.329539 -124.235595 
L 110.962796 -97.159316 
L 112.596053 -111.586216 
L 114.22931 -105.98544 
L 115.862567 -121.088177 
L 117.495825 -128.957408 
L 119.129082 -129.245709 
L 120.762339 -120.065952 
L 122.395596 -119.78638 
L 124.028853 -128.17597 
L 125.662111 -127.901347 
L 127.295368 -113.507023 
L 128.928625 -117.891828 
L 130.561882 -105.633945 
L 132.195139 -112.921444 
L 133.828397 -113.795458 
L 135.461654 -106.290592 
L 137.094911 -100.005542 
L 138.728168 -117.539388 
L 140.361425 -117.498061 
L 141.994683 -129.856799 
L 143.62794 -132.264398 
L 145.261197 -131.36278 
L 146.894454 -129.367418 
L 148.527711 -138.889289 
L 150.160968 -136.813185 
L 151.794226 -137.928031 
L 153.427483 -136.553388 
L 155.06074 -136.284165 
L 156.693997 -140.412301 
L 158.327254 -148.323106 
L 159.960512 -138.649559 
L 161.593769 -138.654779 
L 163.227026 -145.094968 
L 164.860283 -139.4894 
L 166.49354 -141.558867 
L 168.126798 -141.409126 
L 169.760055 -142.093197 
L 171.393312 -141.857585 
L 173.026569 -141.819834 
L 174.659826 -139.878263 
L 176.293084 -141.973287 
L 177.926341 -142.195987 
L 179.559598 -149.062744 
L 181.192855 -149.062744 
L 182.826112 -139.92634 
L 184.45937 -149.129921 
L 186.092627 -148.97793 
L 187.725884 -139.975091 
L 189.359141 -147.453209 
L 190.992398 -141.738012 
L 192.625656 -149.551517 
L 194.258913 -141.997494 
L 195.89217 -147.869204 
L 197.525427 -147.376224 
L 199.158684 -147.376224 
L 200.791942 -150.491898 
L 202.425199 -148.917683 
L 204.058456 -150.491898 
L 205.691713 -150.581099 
L 207.32497 -146.820004 
L 208.958228 -157.661085 
L 210.591485 -152.155314 
L 212.224742 -157.78221 
L 213.857999 -156.08687 
L 215.491256 -156.08687 
L 217.124513 -156.118163 
L 218.757771 -156.378478 
L 220.391028 -156.08687 
L 222.024285 -156.394541 
L 223.657542 -156.394541 
L 225.290799 -156.394541 
L 226.924057 -155.811235 
L 228.557314 -155.811235 
L 230.190571 -155.811235 
L 231.823828 -155.811235 
L 233.457085 -156.515665 
L 235.090343 -156.515665 
L 236.7236 -155.811235 
L 238.356857 -155.811235 
L 239.990114 -162.472189 
L 241.623371 -156.470806 
L 243.256629 -156.470806 
L 244.889886 -156.470806 
L 246.523143 -156.470806 
L 248.1564 -156.470806 
L 249.789657 -156.448916 
L 251.422915 -163.464268 
L 253.056172 -157.440995 
L 254.689429 -157.440995 
L 256.322686 -158.613344 
L 257.955943 -160.102767 
L 259.589201 -160.102767 
L 261.222458 -160.102767 
L 262.855715 -165.484241 
L 264.488972 -163.406383 
L 266.122229 -163.406383 
L 267.755487 -164.616324 
L 269.388744 -163.832524 
L 271.022001 -163.832524 
L 272.655258 -163.128093 
L 274.288515 -163.128093 
L 275.921772 -163.344133 
L 277.55503 -163.344133 
L 279.188287 -163.911894 
L 280.821544 -164.427641 
L 282.454801 -164.294053 
L 284.088058 -164.232073 
L 285.721316 -164.353198 
L 287.354573 -164.603861 
L 288.98783 -165.119608 
L 290.621087 -164.598866 
L 292.254344 -165.132071 
L 293.887602 -164.585436 
L 295.520859 -165.132071 
L 297.154116 -165.132071 
L 298.787373 -165.132071 
L 300.42063 -165.579854 
L 302.053888 -166.962101 
L 303.687145 -165.389753 
L 305.320402 -165.389753 
L 306.953659 -165.389753 
L 308.586916 -165.848943 
L 310.220174 -165.559697 
L 311.853431 -165.559697 
L 313.486688 -165.559697 
L 315.119945 -165.524984 
L 316.753202 -165.567391 
L 318.38646 -165.389753 
L 320.019717 -165.389753 
L 321.652974 -165.148832 
L 323.286231 -165.338932 
L 324.919488 -164.630227 
L 326.552746 -164.800171 
L 328.186003 -164.630227 
L 329.81926 -165.334883 
L 331.452517 -165.148832 
L 333.085774 -165.148832 
L 334.719032 -165.334883 
L 336.352289 -164.344266 
L 337.985546 -164.788562 
L 339.618803 -164.344266 
L 341.25206 -164.294682 
L 342.885317 -164.294682 
L 344.518575 -164.277742 
L 346.151832 -164.824895 
L 347.785089 -164.277742 
L 349.418346 -164.327326 
L 351.051603 -164.144807 
L 352.684861 -164.095223 
L 354.318118 -164.144807 
L 355.951375 -164.327326 
L 357.584632 -164.327326 
L 359.217889 -164.277742 
L 360.851147 -164.277742 
L 362.484404 -164.277742 
L 364.117661 -163.756258 
L 365.750918 -164.215448 
L 367.384175 -164.215448 
L 369.017433 -164.662623 
L 370.65069 -164.662623 
L 372.283947 -164.215448 
L 373.917204 -165.209776 
L 375.550461 -164.762601 
L 377.183719 -164.215448 
L 378.816976 -164.762601 
L 380.450233 -164.762601 
L 382.08349 -164.762601 
L 383.716747 -164.215448 
L 385.350005 -164.215448 
L 386.983262 -164.215448 
L 388.616519 -165.209776 
L 390.249776 -164.762601 
L 391.883033 -165.209776 
L 393.516291 -164.762601 
L 395.149548 -164.762601 
L 396.782805 -164.762601 
L 398.416062 -164.762601 
L 400.049319 -164.762601 
L 401.682577 -165.209776 
L 403.315834 -165.209776 
L 404.949091 -164.762601 
L 404.949091 -165.934927 
L 404.949091 -165.934927 
L 403.315834 -166.378503 
L 401.682577 -166.378503 
L 400.049319 -165.934927 
L 398.416062 -165.934927 
L 396.782805 -165.934927 
L 395.149548 -165.934927 
L 393.516291 -165.934927 
L 391.883033 -166.378503 
L 390.249776 -165.934927 
L 388.616519 -166.378503 
L 386.983262 -165.393398 
L 385.350005 -165.393398 
L 383.716747 -165.393398 
L 382.08349 -165.934927 
L 380.450233 -165.934927 
L 378.816976 -165.934927 
L 377.183719 -165.393398 
L 375.550461 -165.934927 
L 373.917204 -166.378503 
L 372.283947 -165.393398 
L 370.65069 -165.836974 
L 369.017433 -165.836974 
L 367.384175 -165.393398 
L 365.750918 -165.393398 
L 364.117661 -164.956481 
L 362.484404 -165.47549 
L 360.851147 -165.47549 
L 359.217889 -165.47549 
L 357.584632 -165.532498 
L 355.951375 -165.532498 
L 354.318118 -165.371801 
L 352.684861 -165.314793 
L 351.051603 -165.371801 
L 349.418346 -165.532498 
L 347.785089 -165.47549 
L 346.151832 -166.017019 
L 344.518575 -165.47549 
L 342.885317 -165.709753 
L 341.25206 -165.709753 
L 339.618803 -165.766761 
L 337.985546 -166.208807 
L 336.352289 -165.766761 
L 334.719032 -166.750178 
L 333.085774 -166.575375 
L 331.452517 -166.575375 
L 329.81926 -166.750178 
L 328.186003 -166.057896 
L 326.552746 -165.998594 
L 324.919488 -166.057896 
L 323.286231 -166.753328 
L 321.652974 -166.575375 
L 320.019717 -166.793125 
L 318.38646 -166.793125 
L 316.753202 -166.751415 
L 315.119945 -166.928131 
L 313.486688 -166.733823 
L 311.853431 -166.733823 
L 310.220174 -166.733823 
L 308.586916 -167.230042 
L 306.953659 -166.793125 
L 305.320402 -166.793125 
L 303.687145 -166.793125 
L 302.053888 -167.911256 
L 300.42063 -166.971078 
L 298.787373 -166.527119 
L 297.154116 -166.527119 
L 295.520859 -166.527119 
L 293.887602 -165.985658 
L 292.254344 -166.527119 
L 290.621087 -165.793915 
L 288.98783 -166.307457 
L 287.354573 -165.797559 
L 285.721316 -165.500102 
L 284.088058 -165.544556 
L 282.454801 -165.606311 
L 280.821544 -165.781519 
L 279.188287 -165.271621 
L 277.55503 -164.70881 
L 275.921772 -164.70881 
L 274.288515 -164.551487 
L 272.655258 -164.551487 
L 271.022001 -165.297088 
L 269.388744 -165.297088 
L 267.755487 -166.017221 
L 266.122229 -164.773084 
L 264.488972 -164.773084 
L 262.855715 -166.389751 
L 261.222458 -162.076892 
L 259.589201 -162.076892 
L 257.955943 -162.076892 
L 256.322686 -160.624589 
L 254.689429 -159.549653 
L 253.056172 -159.549653 
L 251.422915 -165.191374 
L 249.789657 -159.708077 
L 248.1564 -158.76034 
L 246.523143 -158.76034 
L 244.889886 -158.76034 
L 243.256629 -158.76034 
L 241.623371 -158.76034 
L 239.990114 -165.349798 
L 238.356857 -158.147113 
L 236.7236 -158.147113 
L 235.090343 -158.892714 
L 233.457085 -158.892714 
L 231.823828 -158.147113 
L 230.190571 -158.147113 
L 228.557314 -158.147113 
L 226.924057 -158.147113 
L 225.290799 -158.937168 
L 223.657542 -158.937168 
L 222.024285 -158.937168 
L 220.391028 -157.54401 
L 218.757771 -158.753951 
L 217.124513 -157.351457 
L 215.491256 -157.54401 
L 213.857999 -157.54401 
L 212.224742 -159.108641 
L 210.591485 -154.352835 
L 208.958228 -159.153095 
L 207.32497 -149.946207 
L 205.691713 -152.743749 
L 204.058456 -153.196055 
L 202.425199 -151.586969 
L 200.791942 -153.196055 
L 199.158684 -150.061033 
L 197.525427 -150.061033 
L 195.89217 -150.539164 
L 194.258913 -144.698501 
L 192.625656 -151.667149 
L 190.992398 -144.410223 
L 189.359141 -150.229581 
L 187.725884 -143.284421 
L 186.092627 -151.191199 
L 184.45937 -151.347464 
L 182.826112 -144.826667 
L 181.192855 -151.197948 
L 179.559598 -151.197948 
L 177.926341 -146.429274 
L 176.293084 -146.745381 
L 174.659826 -144.581291 
L 173.026569 -146.963356 
L 171.393312 -146.891545 
L 169.760055 -147.134807 
L 168.126798 -146.621265 
L 166.49354 -146.555933 
L 164.860283 -144.873416 
L 163.227026 -147.24772 
L 161.593769 -142.73576 
L 159.960512 -143.023229 
L 158.327254 -151.939072 
L 156.693997 -146.12455 
L 155.06074 -142.46008 
L 153.427483 -142.687909 
L 151.794226 -145.33994 
L 150.160968 -143.096862 
L 148.527711 -144.867455 
L 146.894454 -135.207452 
L 145.261197 -137.105401 
L 143.62794 -138.11253 
L 141.994683 -134.854539 
L 140.361425 -123.56554 
L 138.728168 -123.990444 
L 137.094911 -109.019472 
L 135.461654 -113.075055 
L 133.828397 -119.538529 
L 132.195139 -118.130658 
L 130.561882 -112.615933 
L 128.928625 -123.825 
L 127.295368 -120.895084 
L 125.662111 -132.360731 
L 124.028853 -132.901494 
L 122.395596 -126.534848 
L 120.762339 -126.531856 
L 119.129082 -135.472243 
L 117.495825 -135.215213 
L 115.862567 -126.348459 
L 114.22931 -112.966529 
L 112.596053 -120.625793 
L 110.962796 -106.522627 
L 109.329539 -129.482379 
L 107.696281 -131.484377 
L 106.063024 -137.70135 
L 104.429767 -116.550481 
L 102.79651 -111.934585 
L 101.163253 -137.394039 
L 99.529995 -132.93794 
L 97.896738 -132.5228 
L 96.263481 -129.685753 
L 94.630224 -133.097894 
L 92.996967 -133.7066 
L 91.363709 -131.648539 
L 89.730452 -140.758914 
L 88.097195 -148.393139 
L 86.463938 -132.127503 
L 84.830681 -145.419602 
L 83.197423 -150.076893 
L 81.564166 -138.21163 
L 79.930909 -73.804087 
z
" style="stroke: #f7a1a1; stroke-opacity: 0.5"/>
    </defs>
    <g clip-path="url(#p9e31555939)">
     <use xlink:href="#m91b49612d2" x="0" y="216" style="fill: #f7a1a1; fill-opacity: 0.5; stroke: #f7a1a1; stroke-opacity: 0.5"/>
    </g>
   </g>
   <g id="matplotlib.axis_1">
    <g id="xtick_1">
     <g id="line2d_1">
      <defs>
       <path id="m0e6d7ed95e" d="M 0 0 
L 0 3.5 
" style="stroke: #000000; stroke-width: 0.8"/>
      </defs>
      <g>
       <use xlink:href="#m0e6d7ed95e" x="78.297652" y="168.28" style="stroke: #000000; stroke-width: 0.8"/>
      </g>
     </g>
     <g id="text_1">
      <!-- 0 -->
      <g transform="translate(74.797652 185.00125) scale(0.14 -0.14)">
       <defs>
        <path id="TimesNewRomanPSMT-30" d="M 231 2094 
Q 231 2819 450 3342 
Q 669 3866 1031 4122 
Q 1313 4325 1613 4325 
Q 2100 4325 2488 3828 
Q 2972 3213 2972 2159 
Q 2972 1422 2759 906 
Q 2547 391 2217 158 
Q 1888 -75 1581 -75 
Q 975 -75 572 641 
Q 231 1244 231 2094 
z
M 844 2016 
Q 844 1141 1059 588 
Q 1238 122 1591 122 
Q 1759 122 1940 273 
Q 2122 425 2216 781 
Q 2359 1319 2359 2297 
Q 2359 3022 2209 3506 
Q 2097 3866 1919 4016 
Q 1791 4119 1609 4119 
Q 1397 4119 1231 3928 
Q 1006 3669 925 3112 
Q 844 2556 844 2016 
z
" transform="scale(0.015625)"/>
       </defs>
       <use xlink:href="#TimesNewRomanPSMT-30"/>
      </g>
     </g>
    </g>
    <g id="xtick_2">
     <g id="line2d_2">
      <g>
       <use xlink:href="#m0e6d7ed95e" x="143.62794" y="168.28" style="stroke: #000000; stroke-width: 0.8"/>
      </g>
     </g>
     <g id="text_2">
      <!-- 200 -->
      <g transform="translate(133.12794 185.00125) scale(0.14 -0.14)">
       <defs>
        <path id="TimesNewRomanPSMT-32" d="M 2934 816 
L 2638 0 
L 138 0 
L 138 116 
Q 1241 1122 1691 1759 
Q 2141 2397 2141 2925 
Q 2141 3328 1894 3587 
Q 1647 3847 1303 3847 
Q 991 3847 742 3664 
Q 494 3481 375 3128 
L 259 3128 
Q 338 3706 661 4015 
Q 984 4325 1469 4325 
Q 1984 4325 2329 3994 
Q 2675 3663 2675 3213 
Q 2675 2891 2525 2569 
Q 2294 2063 1775 1497 
Q 997 647 803 472 
L 1909 472 
Q 2247 472 2383 497 
Q 2519 522 2628 598 
Q 2738 675 2819 816 
L 2934 816 
z
" transform="scale(0.015625)"/>
       </defs>
       <use xlink:href="#TimesNewRomanPSMT-32"/>
       <use xlink:href="#TimesNewRomanPSMT-30" x="50"/>
       <use xlink:href="#TimesNewRomanPSMT-30" x="100"/>
      </g>
     </g>
    </g>
    <g id="xtick_3">
     <g id="line2d_3">
      <g>
       <use xlink:href="#m0e6d7ed95e" x="208.958228" y="168.28" style="stroke: #000000; stroke-width: 0.8"/>
      </g>
     </g>
     <g id="text_3">
      <!-- 400 -->
      <g transform="translate(198.458228 185.00125) scale(0.14 -0.14)">
       <defs>
        <path id="TimesNewRomanPSMT-34" d="M 2978 1563 
L 2978 1119 
L 2409 1119 
L 2409 0 
L 1894 0 
L 1894 1119 
L 100 1119 
L 100 1519 
L 2066 4325 
L 2409 4325 
L 2409 1563 
L 2978 1563 
z
M 1894 1563 
L 1894 3666 
L 406 1563 
L 1894 1563 
z
" transform="scale(0.015625)"/>
       </defs>
       <use xlink:href="#TimesNewRomanPSMT-34"/>
       <use xlink:href="#TimesNewRomanPSMT-30" x="50"/>
       <use xlink:href="#TimesNewRomanPSMT-30" x="100"/>
      </g>
     </g>
    </g>
    <g id="xtick_4">
     <g id="line2d_4">
      <g>
       <use xlink:href="#m0e6d7ed95e" x="274.288515" y="168.28" style="stroke: #000000; stroke-width: 0.8"/>
      </g>
     </g>
     <g id="text_4">
      <!-- 600 -->
      <g transform="translate(263.788515 185.00125) scale(0.14 -0.14)">
       <defs>
        <path id="TimesNewRomanPSMT-36" d="M 2869 4325 
L 2869 4209 
Q 2456 4169 2195 4045 
Q 1934 3922 1679 3669 
Q 1425 3416 1258 3105 
Q 1091 2794 978 2366 
Q 1428 2675 1881 2675 
Q 2316 2675 2634 2325 
Q 2953 1975 2953 1425 
Q 2953 894 2631 456 
Q 2244 -75 1606 -75 
Q 1172 -75 869 213 
Q 275 772 275 1663 
Q 275 2231 503 2743 
Q 731 3256 1154 3653 
Q 1578 4050 1965 4187 
Q 2353 4325 2688 4325 
L 2869 4325 
z
M 925 2138 
Q 869 1716 869 1456 
Q 869 1156 980 804 
Q 1091 453 1309 247 
Q 1469 100 1697 100 
Q 1969 100 2183 356 
Q 2397 613 2397 1088 
Q 2397 1622 2184 2012 
Q 1972 2403 1581 2403 
Q 1463 2403 1327 2353 
Q 1191 2303 925 2138 
z
" transform="scale(0.015625)"/>
       </defs>
       <use xlink:href="#TimesNewRomanPSMT-36"/>
       <use xlink:href="#TimesNewRomanPSMT-30" x="50"/>
       <use xlink:href="#TimesNewRomanPSMT-30" x="100"/>
      </g>
     </g>
    </g>
    <g id="xtick_5">
     <g id="line2d_5">
      <g>
       <use xlink:href="#m0e6d7ed95e" x="339.618803" y="168.28" style="stroke: #000000; stroke-width: 0.8"/>
      </g>
     </g>
     <g id="text_5">
      <!-- 800 -->
      <g transform="translate(329.118803 185.00125) scale(0.14 -0.14)">
       <defs>
        <path id="TimesNewRomanPSMT-38" d="M 1228 2134 
Q 725 2547 579 2797 
Q 434 3047 434 3316 
Q 434 3728 753 4026 
Q 1072 4325 1600 4325 
Q 2113 4325 2425 4047 
Q 2738 3769 2738 3413 
Q 2738 3175 2569 2928 
Q 2400 2681 1866 2347 
Q 2416 1922 2594 1678 
Q 2831 1359 2831 1006 
Q 2831 559 2490 242 
Q 2150 -75 1597 -75 
Q 994 -75 656 303 
Q 388 606 388 966 
Q 388 1247 577 1523 
Q 766 1800 1228 2134 
z
M 1719 2469 
Q 2094 2806 2194 3001 
Q 2294 3197 2294 3444 
Q 2294 3772 2109 3958 
Q 1925 4144 1606 4144 
Q 1288 4144 1088 3959 
Q 888 3775 888 3528 
Q 888 3366 970 3203 
Q 1053 3041 1206 2894 
L 1719 2469 
z
M 1375 2016 
Q 1116 1797 991 1539 
Q 866 1281 866 981 
Q 866 578 1086 336 
Q 1306 94 1647 94 
Q 1984 94 2187 284 
Q 2391 475 2391 747 
Q 2391 972 2272 1150 
Q 2050 1481 1375 2016 
z
" transform="scale(0.015625)"/>
       </defs>
       <use xlink:href="#TimesNewRomanPSMT-38"/>
       <use xlink:href="#TimesNewRomanPSMT-30" x="50"/>
       <use xlink:href="#TimesNewRomanPSMT-30" x="100"/>
      </g>
     </g>
    </g>
    <g id="xtick_6">
     <g id="line2d_6">
      <g>
       <use xlink:href="#m0e6d7ed95e" x="404.949091" y="168.28" style="stroke: #000000; stroke-width: 0.8"/>
      </g>
     </g>
     <g id="text_6">
      <!-- 1000 -->
      <g transform="translate(390.949091 185.00125) scale(0.14 -0.14)">
       <defs>
        <path id="TimesNewRomanPSMT-31" d="M 750 3822 
L 1781 4325 
L 1884 4325 
L 1884 747 
Q 1884 391 1914 303 
Q 1944 216 2037 169 
Q 2131 122 2419 116 
L 2419 0 
L 825 0 
L 825 116 
Q 1125 122 1212 167 
Q 1300 213 1334 289 
Q 1369 366 1369 747 
L 1369 3034 
Q 1369 3497 1338 3628 
Q 1316 3728 1258 3775 
Q 1200 3822 1119 3822 
Q 1003 3822 797 3725 
L 750 3822 
z
" transform="scale(0.015625)"/>
       </defs>
       <use xlink:href="#TimesNewRomanPSMT-31"/>
       <use xlink:href="#TimesNewRomanPSMT-30" x="50"/>
       <use xlink:href="#TimesNewRomanPSMT-30" x="100"/>
       <use xlink:href="#TimesNewRomanPSMT-30" x="150"/>
      </g>
     </g>
    </g>
    <g id="text_7">
     <!-- # of Episodes -->
     <g transform="translate(204.332656 201.717187) scale(0.14 -0.14)">
      <defs>
       <path id="TimesNewRomanPSMT-23" d="M 359 -88 
L 650 1334 
L 116 1334 
L 116 1591 
L 700 1591 
L 916 2663 
L 116 2663 
L 116 2913 
L 975 2913 
L 1259 4334 
L 1519 4334 
L 1234 2913 
L 2288 2913 
L 2591 4334 
L 2850 4334 
L 2553 2913 
L 3084 2913 
L 3084 2663 
L 2506 2663 
L 2288 1591 
L 3084 1591 
L 3084 1334 
L 2234 1334 
L 1944 -88 
L 1691 -88 
L 1975 1334 
L 916 1334 
L 619 -88 
L 359 -88 
z
M 963 1591 
L 2022 1591 
L 2247 2663 
L 1181 2663 
L 963 1591 
z
" transform="scale(0.015625)"/>
       <path id="TimesNewRomanPSMT-20" transform="scale(0.015625)"/>
       <path id="TimesNewRomanPSMT-6f" d="M 1600 2947 
Q 2250 2947 2644 2453 
Q 2978 2031 2978 1484 
Q 2978 1100 2793 706 
Q 2609 313 2286 112 
Q 1963 -88 1566 -88 
Q 919 -88 538 428 
Q 216 863 216 1403 
Q 216 1797 411 2186 
Q 606 2575 925 2761 
Q 1244 2947 1600 2947 
z
M 1503 2744 
Q 1338 2744 1170 2645 
Q 1003 2547 900 2300 
Q 797 2053 797 1666 
Q 797 1041 1045 587 
Q 1294 134 1700 134 
Q 2003 134 2200 384 
Q 2397 634 2397 1244 
Q 2397 2006 2069 2444 
Q 1847 2744 1503 2744 
z
" transform="scale(0.015625)"/>
       <path id="TimesNewRomanPSMT-66" d="M 1319 2638 
L 1319 756 
Q 1319 356 1406 250 
Q 1522 113 1716 113 
L 1975 113 
L 1975 0 
L 266 0 
L 266 113 
L 394 113 
Q 519 113 622 175 
Q 725 238 764 344 
Q 803 450 803 756 
L 803 2638 
L 247 2638 
L 247 2863 
L 803 2863 
L 803 3050 
Q 803 3478 940 3775 
Q 1078 4072 1361 4255 
Q 1644 4438 1997 4438 
Q 2325 4438 2600 4225 
Q 2781 4084 2781 3909 
Q 2781 3816 2700 3733 
Q 2619 3650 2525 3650 
Q 2453 3650 2373 3701 
Q 2294 3753 2178 3923 
Q 2063 4094 1966 4153 
Q 1869 4213 1750 4213 
Q 1606 4213 1506 4136 
Q 1406 4059 1362 3898 
Q 1319 3738 1319 3069 
L 1319 2863 
L 2056 2863 
L 2056 2638 
L 1319 2638 
z
" transform="scale(0.015625)"/>
       <path id="TimesNewRomanPSMT-45" d="M 1338 4006 
L 1338 2331 
L 2269 2331 
Q 2631 2331 2753 2441 
Q 2916 2584 2934 2947 
L 3050 2947 
L 3050 1472 
L 2934 1472 
Q 2891 1781 2847 1869 
Q 2791 1978 2662 2040 
Q 2534 2103 2269 2103 
L 1338 2103 
L 1338 706 
Q 1338 425 1363 364 
Q 1388 303 1450 267 
Q 1513 231 1688 231 
L 2406 231 
Q 2766 231 2928 281 
Q 3091 331 3241 478 
Q 3434 672 3638 1063 
L 3763 1063 
L 3397 0 
L 131 0 
L 131 116 
L 281 116 
Q 431 116 566 188 
Q 666 238 702 338 
Q 738 438 738 747 
L 738 3500 
Q 738 3903 656 3997 
Q 544 4122 281 4122 
L 131 4122 
L 131 4238 
L 3397 4238 
L 3444 3309 
L 3322 3309 
Q 3256 3644 3176 3769 
Q 3097 3894 2941 3959 
Q 2816 4006 2500 4006 
L 1338 4006 
z
" transform="scale(0.015625)"/>
       <path id="TimesNewRomanPSMT-70" d="M -6 2578 
L 875 2934 
L 994 2934 
L 994 2266 
Q 1216 2644 1439 2795 
Q 1663 2947 1909 2947 
Q 2341 2947 2628 2609 
Q 2981 2197 2981 1534 
Q 2981 794 2556 309 
Q 2206 -88 1675 -88 
Q 1444 -88 1275 -22 
Q 1150 25 994 166 
L 994 -706 
Q 994 -1000 1030 -1079 
Q 1066 -1159 1155 -1206 
Q 1244 -1253 1478 -1253 
L 1478 -1369 
L -22 -1369 
L -22 -1253 
L 56 -1253 
Q 228 -1256 350 -1188 
Q 409 -1153 442 -1076 
Q 475 -1000 475 -688 
L 475 2019 
Q 475 2297 450 2372 
Q 425 2447 370 2484 
Q 316 2522 222 2522 
Q 147 2522 31 2478 
L -6 2578 
z
M 994 2081 
L 994 1013 
Q 994 666 1022 556 
Q 1066 375 1236 237 
Q 1406 100 1666 100 
Q 1978 100 2172 344 
Q 2425 663 2425 1241 
Q 2425 1897 2138 2250 
Q 1938 2494 1663 2494 
Q 1513 2494 1366 2419 
Q 1253 2363 994 2081 
z
" transform="scale(0.015625)"/>
       <path id="TimesNewRomanPSMT-69" d="M 928 4444 
Q 1059 4444 1151 4351 
Q 1244 4259 1244 4128 
Q 1244 3997 1151 3903 
Q 1059 3809 928 3809 
Q 797 3809 703 3903 
Q 609 3997 609 4128 
Q 609 4259 701 4351 
Q 794 4444 928 4444 
z
M 1188 2947 
L 1188 647 
Q 1188 378 1227 289 
Q 1266 200 1342 156 
Q 1419 113 1622 113 
L 1622 0 
L 231 0 
L 231 113 
Q 441 113 512 153 
Q 584 194 626 287 
Q 669 381 669 647 
L 669 1750 
Q 669 2216 641 2353 
Q 619 2453 572 2492 
Q 525 2531 444 2531 
Q 356 2531 231 2484 
L 188 2597 
L 1050 2947 
L 1188 2947 
z
" transform="scale(0.015625)"/>
       <path id="TimesNewRomanPSMT-73" d="M 2050 2947 
L 2050 1972 
L 1947 1972 
Q 1828 2431 1642 2597 
Q 1456 2763 1169 2763 
Q 950 2763 815 2647 
Q 681 2531 681 2391 
Q 681 2216 781 2091 
Q 878 1963 1175 1819 
L 1631 1597 
Q 2266 1288 2266 781 
Q 2266 391 1970 151 
Q 1675 -88 1309 -88 
Q 1047 -88 709 6 
Q 606 38 541 38 
Q 469 38 428 -44 
L 325 -44 
L 325 978 
L 428 978 
Q 516 541 762 319 
Q 1009 97 1316 97 
Q 1531 97 1667 223 
Q 1803 350 1803 528 
Q 1803 744 1651 891 
Q 1500 1038 1047 1263 
Q 594 1488 453 1669 
Q 313 1847 313 2119 
Q 313 2472 555 2709 
Q 797 2947 1181 2947 
Q 1350 2947 1591 2875 
Q 1750 2828 1803 2828 
Q 1853 2828 1881 2850 
Q 1909 2872 1947 2947 
L 2050 2947 
z
" transform="scale(0.015625)"/>
       <path id="TimesNewRomanPSMT-64" d="M 2222 322 
Q 2013 103 1813 7 
Q 1613 -88 1381 -88 
Q 913 -88 563 304 
Q 213 697 213 1313 
Q 213 1928 600 2439 
Q 988 2950 1597 2950 
Q 1975 2950 2222 2709 
L 2222 3238 
Q 2222 3728 2198 3840 
Q 2175 3953 2125 3993 
Q 2075 4034 2000 4034 
Q 1919 4034 1784 3984 
L 1744 4094 
L 2597 4444 
L 2738 4444 
L 2738 1134 
Q 2738 631 2761 520 
Q 2784 409 2836 365 
Q 2888 322 2956 322 
Q 3041 322 3181 375 
L 3216 266 
L 2366 -88 
L 2222 -88 
L 2222 322 
z
M 2222 541 
L 2222 2016 
Q 2203 2228 2109 2403 
Q 2016 2578 1861 2667 
Q 1706 2756 1559 2756 
Q 1284 2756 1069 2509 
Q 784 2184 784 1559 
Q 784 928 1059 592 
Q 1334 256 1672 256 
Q 1956 256 2222 541 
z
" transform="scale(0.015625)"/>
       <path id="TimesNewRomanPSMT-65" d="M 681 1784 
Q 678 1147 991 784 
Q 1303 422 1725 422 
Q 2006 422 2214 576 
Q 2422 731 2563 1106 
L 2659 1044 
Q 2594 616 2278 264 
Q 1963 -88 1488 -88 
Q 972 -88 605 314 
Q 238 716 238 1394 
Q 238 2128 614 2539 
Q 991 2950 1559 2950 
Q 2041 2950 2350 2633 
Q 2659 2316 2659 1784 
L 681 1784 
z
M 681 1966 
L 2006 1966 
Q 1991 2241 1941 2353 
Q 1863 2528 1708 2628 
Q 1553 2728 1384 2728 
Q 1125 2728 920 2526 
Q 716 2325 681 1966 
z
" transform="scale(0.015625)"/>
      </defs>
      <use xlink:href="#TimesNewRomanPSMT-23"/>
      <use xlink:href="#TimesNewRomanPSMT-20" x="50"/>
      <use xlink:href="#TimesNewRomanPSMT-6f" x="75"/>
      <use xlink:href="#TimesNewRomanPSMT-66" x="125"/>
      <use xlink:href="#TimesNewRomanPSMT-20" x="158.300781"/>
      <use xlink:href="#TimesNewRomanPSMT-45" x="183.300781"/>
      <use xlink:href="#TimesNewRomanPSMT-70" x="244.384766"/>
      <use xlink:href="#TimesNewRomanPSMT-69" x="294.384766"/>
      <use xlink:href="#TimesNewRomanPSMT-73" x="322.167969"/>
      <use xlink:href="#TimesNewRomanPSMT-6f" x="361.083984"/>
      <use xlink:href="#TimesNewRomanPSMT-64" x="411.083984"/>
      <use xlink:href="#TimesNewRomanPSMT-65" x="461.083984"/>
      <use xlink:href="#TimesNewRomanPSMT-73" x="505.46875"/>
     </g>
    </g>
   </g>
   <g id="matplotlib.axis_2">
    <g id="ytick_1">
     <g id="line2d_7">
      <defs>
       <path id="maa2f3bd3ee" d="M 0 0 
L -3.5 0 
" style="stroke: #000000; stroke-width: 0.8"/>
      </defs>
      <g>
       <use xlink:href="#maa2f3bd3ee" x="63.68" y="145.782857" style="stroke: #000000; stroke-width: 0.8"/>
      </g>
     </g>
     <g id="text_8">
      <!-- −100 -->
      <g transform="translate(27.785312 150.643482) scale(0.14 -0.14)">
       <defs>
        <path id="TimesNewRomanPSMT-2212" d="M 3484 2000 
L 116 2000 
L 116 2256 
L 3484 2256 
L 3484 2000 
z
" transform="scale(0.015625)"/>
       </defs>
       <use xlink:href="#TimesNewRomanPSMT-2212"/>
       <use xlink:href="#TimesNewRomanPSMT-31" x="56.396484"/>
       <use xlink:href="#TimesNewRomanPSMT-30" x="106.396484"/>
       <use xlink:href="#TimesNewRomanPSMT-30" x="156.396484"/>
      </g>
     </g>
    </g>
    <g id="ytick_2">
     <g id="line2d_8">
      <g>
       <use xlink:href="#maa2f3bd3ee" x="63.68" y="89.54" style="stroke: #000000; stroke-width: 0.8"/>
      </g>
     </g>
     <g id="text_9">
      <!-- −50 -->
      <g transform="translate(34.785312 94.400625) scale(0.14 -0.14)">
       <defs>
        <path id="TimesNewRomanPSMT-35" d="M 2778 4238 
L 2534 3706 
L 1259 3706 
L 981 3138 
Q 1809 3016 2294 2522 
Q 2709 2097 2709 1522 
Q 2709 1188 2573 903 
Q 2438 619 2231 419 
Q 2025 219 1772 97 
Q 1413 -75 1034 -75 
Q 653 -75 479 54 
Q 306 184 306 341 
Q 306 428 378 495 
Q 450 563 559 563 
Q 641 563 702 538 
Q 763 513 909 409 
Q 1144 247 1384 247 
Q 1750 247 2026 523 
Q 2303 800 2303 1197 
Q 2303 1581 2056 1914 
Q 1809 2247 1375 2428 
Q 1034 2569 447 2591 
L 1259 4238 
L 2778 4238 
z
" transform="scale(0.015625)"/>
       </defs>
       <use xlink:href="#TimesNewRomanPSMT-2212"/>
       <use xlink:href="#TimesNewRomanPSMT-35" x="56.396484"/>
       <use xlink:href="#TimesNewRomanPSMT-30" x="106.396484"/>
      </g>
     </g>
    </g>
    <g id="ytick_3">
     <g id="line2d_9">
      <g>
       <use xlink:href="#maa2f3bd3ee" x="63.68" y="33.297143" style="stroke: #000000; stroke-width: 0.8"/>
      </g>
     </g>
     <g id="text_10">
      <!-- 0 -->
      <g transform="translate(49.68 38.157768) scale(0.14 -0.14)">
       <use xlink:href="#TimesNewRomanPSMT-30"/>
      </g>
     </g>
    </g>
    <g id="text_11">
     <!-- Cumulative Rewards -->
     <g transform="translate(20.790625 148.447188) rotate(-90) scale(0.14 -0.14)">
      <defs>
       <path id="TimesNewRomanPSMT-43" d="M 3853 4334 
L 3950 2894 
L 3853 2894 
Q 3659 3541 3300 3825 
Q 2941 4109 2438 4109 
Q 2016 4109 1675 3895 
Q 1334 3681 1139 3212 
Q 944 2744 944 2047 
Q 944 1472 1128 1050 
Q 1313 628 1683 403 
Q 2053 178 2528 178 
Q 2941 178 3256 354 
Q 3572 531 3950 1056 
L 4047 994 
Q 3728 428 3303 165 
Q 2878 -97 2294 -97 
Q 1241 -97 663 684 
Q 231 1266 231 2053 
Q 231 2688 515 3219 
Q 800 3750 1298 4042 
Q 1797 4334 2388 4334 
Q 2847 4334 3294 4109 
Q 3425 4041 3481 4041 
Q 3566 4041 3628 4100 
Q 3709 4184 3744 4334 
L 3853 4334 
z
" transform="scale(0.015625)"/>
       <path id="TimesNewRomanPSMT-75" d="M 2709 2863 
L 2709 1128 
Q 2709 631 2732 520 
Q 2756 409 2807 365 
Q 2859 322 2928 322 
Q 3025 322 3147 375 
L 3191 266 
L 2334 -88 
L 2194 -88 
L 2194 519 
Q 1825 119 1631 15 
Q 1438 -88 1222 -88 
Q 981 -88 804 51 
Q 628 191 559 409 
Q 491 628 491 1028 
L 491 2306 
Q 491 2509 447 2587 
Q 403 2666 317 2708 
Q 231 2750 6 2747 
L 6 2863 
L 1009 2863 
L 1009 947 
Q 1009 547 1148 422 
Q 1288 297 1484 297 
Q 1619 297 1789 381 
Q 1959 466 2194 703 
L 2194 2325 
Q 2194 2569 2105 2655 
Q 2016 2741 1734 2747 
L 1734 2863 
L 2709 2863 
z
" transform="scale(0.015625)"/>
       <path id="TimesNewRomanPSMT-6d" d="M 1050 2338 
Q 1363 2650 1419 2697 
Q 1559 2816 1721 2881 
Q 1884 2947 2044 2947 
Q 2313 2947 2506 2790 
Q 2700 2634 2766 2338 
Q 3088 2713 3309 2830 
Q 3531 2947 3766 2947 
Q 3994 2947 4170 2830 
Q 4347 2713 4450 2447 
Q 4519 2266 4519 1878 
L 4519 647 
Q 4519 378 4559 278 
Q 4591 209 4675 161 
Q 4759 113 4950 113 
L 4950 0 
L 3538 0 
L 3538 113 
L 3597 113 
Q 3781 113 3884 184 
Q 3956 234 3988 344 
Q 4000 397 4000 647 
L 4000 1878 
Q 4000 2228 3916 2372 
Q 3794 2572 3525 2572 
Q 3359 2572 3192 2489 
Q 3025 2406 2788 2181 
L 2781 2147 
L 2788 2013 
L 2788 647 
Q 2788 353 2820 281 
Q 2853 209 2943 161 
Q 3034 113 3253 113 
L 3253 0 
L 1806 0 
L 1806 113 
Q 2044 113 2133 169 
Q 2222 225 2256 338 
Q 2272 391 2272 647 
L 2272 1878 
Q 2272 2228 2169 2381 
Q 2031 2581 1784 2581 
Q 1616 2581 1450 2491 
Q 1191 2353 1050 2181 
L 1050 647 
Q 1050 366 1089 281 
Q 1128 197 1204 155 
Q 1281 113 1516 113 
L 1516 0 
L 100 0 
L 100 113 
Q 297 113 375 155 
Q 453 197 493 289 
Q 534 381 534 647 
L 534 1741 
Q 534 2213 506 2350 
Q 484 2453 437 2492 
Q 391 2531 309 2531 
Q 222 2531 100 2484 
L 53 2597 
L 916 2947 
L 1050 2947 
L 1050 2338 
z
" transform="scale(0.015625)"/>
       <path id="TimesNewRomanPSMT-6c" d="M 1184 4444 
L 1184 647 
Q 1184 378 1223 290 
Q 1263 203 1344 158 
Q 1425 113 1647 113 
L 1647 0 
L 244 0 
L 244 113 
Q 441 113 512 153 
Q 584 194 625 287 
Q 666 381 666 647 
L 666 3247 
Q 666 3731 644 3842 
Q 622 3953 573 3993 
Q 525 4034 450 4034 
Q 369 4034 244 3984 
L 191 4094 
L 1044 4444 
L 1184 4444 
z
" transform="scale(0.015625)"/>
       <path id="TimesNewRomanPSMT-61" d="M 1822 413 
Q 1381 72 1269 19 
Q 1100 -59 909 -59 
Q 613 -59 420 144 
Q 228 347 228 678 
Q 228 888 322 1041 
Q 450 1253 767 1440 
Q 1084 1628 1822 1897 
L 1822 2009 
Q 1822 2438 1686 2597 
Q 1550 2756 1291 2756 
Q 1094 2756 978 2650 
Q 859 2544 859 2406 
L 866 2225 
Q 866 2081 792 2003 
Q 719 1925 600 1925 
Q 484 1925 411 2006 
Q 338 2088 338 2228 
Q 338 2497 613 2722 
Q 888 2947 1384 2947 
Q 1766 2947 2009 2819 
Q 2194 2722 2281 2516 
Q 2338 2381 2338 1966 
L 2338 994 
Q 2338 584 2353 492 
Q 2369 400 2405 369 
Q 2441 338 2488 338 
Q 2538 338 2575 359 
Q 2641 400 2828 588 
L 2828 413 
Q 2478 -56 2159 -56 
Q 2006 -56 1915 50 
Q 1825 156 1822 413 
z
M 1822 616 
L 1822 1706 
Q 1350 1519 1213 1441 
Q 966 1303 859 1153 
Q 753 1003 753 825 
Q 753 600 887 451 
Q 1022 303 1197 303 
Q 1434 303 1822 616 
z
" transform="scale(0.015625)"/>
       <path id="TimesNewRomanPSMT-74" d="M 1031 3803 
L 1031 2863 
L 1700 2863 
L 1700 2644 
L 1031 2644 
L 1031 788 
Q 1031 509 1111 412 
Q 1191 316 1316 316 
Q 1419 316 1516 380 
Q 1613 444 1666 569 
L 1788 569 
Q 1678 263 1478 108 
Q 1278 -47 1066 -47 
Q 922 -47 784 33 
Q 647 113 581 261 
Q 516 409 516 719 
L 516 2644 
L 63 2644 
L 63 2747 
Q 234 2816 414 2980 
Q 594 3144 734 3369 
Q 806 3488 934 3803 
L 1031 3803 
z
" transform="scale(0.015625)"/>
       <path id="TimesNewRomanPSMT-76" d="M 53 2863 
L 1400 2863 
L 1400 2747 
L 1313 2747 
Q 1191 2747 1127 2687 
Q 1063 2628 1063 2528 
Q 1063 2419 1128 2269 
L 1794 688 
L 2463 2328 
Q 2534 2503 2534 2594 
Q 2534 2638 2509 2666 
Q 2475 2713 2422 2730 
Q 2369 2747 2206 2747 
L 2206 2863 
L 3141 2863 
L 3141 2747 
Q 2978 2734 2916 2681 
Q 2806 2588 2719 2369 
L 1703 -88 
L 1575 -88 
L 553 2328 
Q 484 2497 421 2570 
Q 359 2644 263 2694 
Q 209 2722 53 2747 
L 53 2863 
z
" transform="scale(0.015625)"/>
       <path id="TimesNewRomanPSMT-52" d="M 4325 0 
L 3194 0 
L 1759 1981 
Q 1600 1975 1500 1975 
Q 1459 1975 1412 1976 
Q 1366 1978 1316 1981 
L 1316 750 
Q 1316 350 1403 253 
Q 1522 116 1759 116 
L 1925 116 
L 1925 0 
L 109 0 
L 109 116 
L 269 116 
Q 538 116 653 291 
Q 719 388 719 750 
L 719 3488 
Q 719 3888 631 3984 
Q 509 4122 269 4122 
L 109 4122 
L 109 4238 
L 1653 4238 
Q 2328 4238 2648 4139 
Q 2969 4041 3192 3777 
Q 3416 3513 3416 3147 
Q 3416 2756 3161 2468 
Q 2906 2181 2372 2063 
L 3247 847 
Q 3547 428 3762 290 
Q 3978 153 4325 116 
L 4325 0 
z
M 1316 2178 
Q 1375 2178 1419 2176 
Q 1463 2175 1491 2175 
Q 2097 2175 2405 2437 
Q 2713 2700 2713 3106 
Q 2713 3503 2464 3751 
Q 2216 4000 1806 4000 
Q 1625 4000 1316 3941 
L 1316 2178 
z
" transform="scale(0.015625)"/>
       <path id="TimesNewRomanPSMT-77" d="M 41 2863 
L 1241 2863 
L 1241 2747 
Q 1075 2734 1023 2687 
Q 972 2641 972 2553 
Q 972 2456 1025 2319 
L 1638 672 
L 2253 2013 
L 2091 2434 
Q 2016 2622 1894 2694 
Q 1825 2738 1638 2747 
L 1638 2863 
L 3000 2863 
L 3000 2747 
Q 2775 2738 2681 2666 
Q 2619 2616 2619 2506 
Q 2619 2444 2644 2378 
L 3294 734 
L 3897 2319 
Q 3959 2488 3959 2588 
Q 3959 2647 3898 2694 
Q 3838 2741 3659 2747 
L 3659 2863 
L 4563 2863 
L 4563 2747 
Q 4291 2706 4163 2378 
L 3206 -88 
L 3078 -88 
L 2363 1741 
L 1528 -88 
L 1413 -88 
L 494 2319 
Q 403 2547 315 2626 
Q 228 2706 41 2747 
L 41 2863 
z
" transform="scale(0.015625)"/>
       <path id="TimesNewRomanPSMT-72" d="M 1038 2947 
L 1038 2303 
Q 1397 2947 1775 2947 
Q 1947 2947 2059 2842 
Q 2172 2738 2172 2600 
Q 2172 2478 2090 2393 
Q 2009 2309 1897 2309 
Q 1788 2309 1652 2417 
Q 1516 2525 1450 2525 
Q 1394 2525 1328 2463 
Q 1188 2334 1038 2041 
L 1038 669 
Q 1038 431 1097 309 
Q 1138 225 1241 169 
Q 1344 113 1538 113 
L 1538 0 
L 72 0 
L 72 113 
Q 291 113 397 181 
Q 475 231 506 341 
Q 522 394 522 644 
L 522 1753 
Q 522 2253 501 2348 
Q 481 2444 426 2487 
Q 372 2531 291 2531 
Q 194 2531 72 2484 
L 41 2597 
L 906 2947 
L 1038 2947 
z
" transform="scale(0.015625)"/>
      </defs>
      <use xlink:href="#TimesNewRomanPSMT-43"/>
      <use xlink:href="#TimesNewRomanPSMT-75" x="66.699219"/>
      <use xlink:href="#TimesNewRomanPSMT-6d" x="116.699219"/>
      <use xlink:href="#TimesNewRomanPSMT-75" x="194.482422"/>
      <use xlink:href="#TimesNewRomanPSMT-6c" x="244.482422"/>
      <use xlink:href="#TimesNewRomanPSMT-61" x="272.265625"/>
      <use xlink:href="#TimesNewRomanPSMT-74" x="316.650391"/>
      <use xlink:href="#TimesNewRomanPSMT-69" x="344.433594"/>
      <use xlink:href="#TimesNewRomanPSMT-76" x="372.216797"/>
      <use xlink:href="#TimesNewRomanPSMT-65" x="422.216797"/>
      <use xlink:href="#TimesNewRomanPSMT-20" x="466.601562"/>
      <use xlink:href="#TimesNewRomanPSMT-52" x="491.601562"/>
      <use xlink:href="#TimesNewRomanPSMT-65" x="558.300781"/>
      <use xlink:href="#TimesNewRomanPSMT-77" x="602.685547"/>
      <use xlink:href="#TimesNewRomanPSMT-61" x="674.902344"/>
      <use xlink:href="#TimesNewRomanPSMT-72" x="719.287109"/>
      <use xlink:href="#TimesNewRomanPSMT-64" x="752.587891"/>
      <use xlink:href="#TimesNewRomanPSMT-73" x="802.587891"/>
     </g>
    </g>
   </g>
   <g id="line2d_10">
    <path d="M 79.930909 59.193244 
L 81.564166 49.153759 
L 83.197423 53.996314 
L 84.830681 54.771296 
L 86.463938 48.283052 
L 88.097195 46.041054 
L 89.730452 44.048797 
L 91.363709 42.568598 
L 92.996967 43.773185 
L 94.630224 42.081917 
L 96.263481 43.933949 
L 97.896738 42.437102 
L 99.529995 44.01197 
L 101.163253 45.135634 
L 102.79651 45.07082 
L 104.429767 44.548414 
L 106.063024 41.929027 
L 107.696281 41.621693 
L 112.596053 41.675281 
L 114.22931 41.334472 
L 115.862567 41.381874 
L 119.129082 41.735101 
L 120.762339 41.747047 
L 122.395596 41.507768 
L 124.028853 41.737103 
L 132.195139 41.816496 
L 133.828397 41.639443 
L 135.461654 42.155235 
L 137.094911 41.997913 
L 138.728168 42.172221 
L 141.994683 42.084482 
L 143.62794 43.098631 
L 145.261197 42.916606 
L 146.894454 41.424821 
L 148.527711 42.697709 
L 150.160968 41.372875 
L 151.794226 41.252448 
L 153.427483 42.636157 
L 155.06074 42.587923 
L 156.693997 41.203134 
L 158.327254 41.365946 
L 168.126798 41.370423 
L 169.760055 41.839555 
L 171.393312 41.436677 
L 173.026569 41.436677 
L 174.659826 41.797486 
L 176.293084 41.332582 
L 177.926341 41.849634 
L 179.559598 41.384731 
L 187.725884 41.173933 
L 189.359141 41.585923 
L 190.992398 41.54572 
L 192.625656 41.380636 
L 195.89217 41.380636 
L 197.525427 41.046374 
L 200.791942 40.980547 
L 213.857999 40.980547 
L 215.491256 40.868961 
L 222.024285 40.895463 
L 228.557314 41.166688 
L 241.623371 41.136137 
L 243.256629 41.301221 
L 244.889886 41.102707 
L 251.422915 41.267791 
L 253.056172 40.531932 
L 254.689429 40.531932 
L 256.322686 41.102707 
L 261.222458 41.102707 
L 262.855715 41.267791 
L 264.488972 40.697016 
L 266.122229 40.670514 
L 267.755487 41.241289 
L 269.388744 40.670514 
L 271.022001 40.697016 
L 272.655258 41.267791 
L 279.188287 41.241289 
L 287.354573 41.267791 
L 404.949091 41.267791 
L 404.949091 41.267791 
" clip-path="url(#p9e31555939)" style="fill: none; stroke: #003f5c; stroke-width: 0.7; stroke-linecap: square"/>
   </g>
   <g id="line2d_11">
    <path d="M 79.930909 81.994413 
L 81.564166 98.989722 
L 83.197423 77.471453 
L 84.830681 79.358738 
L 86.463938 68.097051 
L 88.097195 65.955975 
L 89.730452 75.714403 
L 91.363709 72.536929 
L 92.996967 70.786584 
L 94.630224 72.147594 
L 96.263481 67.785825 
L 97.896738 81.892569 
L 99.529995 75.279826 
L 101.163253 70.44717 
L 102.79651 72.153713 
L 104.429767 69.203168 
L 106.063024 75.36815 
L 107.696281 76.833276 
L 109.329539 91.126499 
L 110.962796 86.051098 
L 112.596053 81.876663 
L 114.22931 84.194161 
L 115.862567 87.406911 
L 117.495825 74.676003 
L 119.129082 80.854303 
L 120.762339 82.330206 
L 122.395596 82.618124 
L 124.028853 78.953474 
L 125.662111 86.576609 
L 127.295368 82.79151 
L 128.928625 97.424349 
L 130.561882 102.459389 
L 133.828397 96.869524 
L 135.461654 91.965394 
L 137.094911 94.316976 
L 138.728168 91.456824 
L 140.361425 83.918391 
L 141.994683 81.381794 
L 143.62794 75.20788 
L 145.261197 76.540723 
L 146.894454 72.781248 
L 148.527711 63.955124 
L 150.160968 81.333492 
L 151.794226 73.852022 
L 153.427483 70.7797 
L 155.06074 62.124892 
L 156.693997 63.257713 
L 159.960512 63.273078 
L 161.593769 68.555475 
L 163.227026 70.154864 
L 164.860283 70.154864 
L 166.49354 66.969944 
L 168.126798 66.969944 
L 169.760055 66.242026 
L 171.393312 62.815127 
L 173.026569 61.446355 
L 174.659826 65.731881 
L 176.293084 70.414841 
L 177.926341 69.403505 
L 179.559598 68.79327 
L 182.826112 63.374406 
L 184.45937 66.62432 
L 186.092627 68.934552 
L 187.725884 69.322065 
L 189.359141 65.757123 
L 190.992398 68.671313 
L 192.625656 63.198095 
L 194.258913 61.528425 
L 195.89217 62.82786 
L 197.525427 63.146397 
L 199.158684 63.146397 
L 200.791942 63.408826 
L 202.425199 62.109391 
L 204.058456 63.198095 
L 205.691713 65.262276 
L 207.32497 61.628807 
L 210.591485 61.628807 
L 212.224742 62.211236 
L 215.491256 62.211236 
L 217.124513 61.500236 
L 218.757771 62.86651 
L 220.391028 61.660798 
L 222.024285 61.660798 
L 223.657542 63.510671 
L 225.290799 60.576526 
L 226.924057 62.426398 
L 228.557314 64.085158 
L 231.823828 70.942219 
L 233.457085 70.732906 
L 235.090343 62.126377 
L 236.7236 60.407595 
L 238.356857 60.407595 
L 239.990114 58.47671 
L 241.623371 61.525253 
L 243.256629 56.187851 
L 244.889886 58.935674 
L 246.523143 66.080384 
L 248.1564 65.767809 
L 249.789657 63.99229 
L 251.422915 67.14081 
L 253.056172 65.767809 
L 254.689429 65.024503 
L 256.322686 65.024503 
L 257.955943 63.207994 
L 259.589201 63.225587 
L 261.222458 63.495665 
L 262.855715 59.71619 
L 264.488972 57.628095 
L 266.122229 57.628095 
L 267.755487 51.699738 
L 269.388744 51.699738 
L 271.022001 52.444799 
L 272.655258 52.444799 
L 274.288515 49.840687 
L 275.921772 49.840687 
L 277.55503 49.717357 
L 279.188287 49.441363 
L 280.821544 52.045474 
L 282.454801 49.216324 
L 284.088058 51.820435 
L 285.721316 49.441363 
L 288.98783 49.545749 
L 290.621087 50.917018 
L 292.254344 51.021404 
L 293.887602 56.107468 
L 295.520859 50.917018 
L 297.154116 50.615421 
L 306.953659 50.615421 
L 308.586916 50.443183 
L 310.220174 50.443183 
L 311.853431 51.17749 
L 313.486688 50.548987 
L 315.119945 51.349728 
L 316.753202 50.615421 
L 318.38646 50.443183 
L 320.019717 50.443183 
L 321.652974 50.625387 
L 331.452517 50.625387 
L 333.085774 50.937962 
L 334.719032 50.937962 
L 336.352289 50.625387 
L 344.518575 50.625387 
L 346.151832 50.937962 
L 347.785089 50.625387 
L 362.484404 50.615421 
L 365.750918 50.721225 
L 395.149548 50.615421 
L 398.416062 50.518773 
L 404.949091 50.615421 
L 404.949091 50.615421 
" clip-path="url(#p9e31555939)" style="fill: none; stroke: #2f4b7c; stroke-width: 0.7; stroke-linecap: square"/>
   </g>
   <g id="line2d_12">
    <path d="M 79.930909 147.438422 
L 81.564166 81.43032 
L 83.197423 69.073269 
L 84.830681 74.467004 
L 86.463938 88.700384 
L 88.097195 71.180757 
L 89.730452 80.2449 
L 91.363709 87.76979 
L 92.996967 86.963357 
L 94.630224 87.508058 
L 96.263481 89.219416 
L 97.896738 87.124662 
L 99.529995 86.662053 
L 101.163253 81.956348 
L 102.79651 108.04561 
L 104.429767 103.3395 
L 106.063024 81.712479 
L 107.696281 87.672985 
L 109.329539 89.141013 
L 110.962796 114.159028 
L 112.596053 99.893995 
L 114.22931 106.524016 
L 115.862567 92.281682 
L 117.495825 83.91369 
L 119.129082 83.641024 
L 120.762339 92.701096 
L 122.395596 92.839386 
L 124.028853 85.461268 
L 125.662111 85.868961 
L 127.295368 98.798947 
L 128.928625 95.141586 
L 130.561882 106.875061 
L 132.195139 100.473949 
L 133.828397 99.333006 
L 135.461654 106.317177 
L 137.094911 111.487493 
L 138.728168 95.235084 
L 140.361425 95.4682 
L 141.994683 83.644331 
L 143.62794 80.811536 
L 145.261197 81.76591 
L 146.894454 83.712565 
L 148.527711 74.121628 
L 150.160968 76.044976 
L 151.794226 74.366015 
L 153.427483 76.379351 
L 155.06074 76.627877 
L 156.693997 72.731575 
L 158.327254 65.868911 
L 159.960512 75.163606 
L 161.593769 75.30473 
L 163.227026 69.828656 
L 164.860283 73.818592 
L 166.49354 71.9426 
L 168.126798 71.984805 
L 169.760055 71.385998 
L 171.393312 71.625435 
L 173.026569 71.608405 
L 174.659826 73.770223 
L 176.293084 71.640666 
L 177.926341 71.68737 
L 179.559598 65.869654 
L 181.192855 65.869654 
L 182.826112 73.623496 
L 184.45937 65.761307 
L 186.092627 65.915435 
L 187.725884 74.370244 
L 189.359141 67.158605 
L 190.992398 72.925882 
L 192.625656 65.390667 
L 194.258913 72.652002 
L 195.89217 66.795816 
L 197.525427 67.281372 
L 199.158684 67.281372 
L 200.791942 64.156024 
L 202.425199 65.747674 
L 204.058456 64.156024 
L 205.691713 64.337576 
L 207.32497 67.616894 
L 208.958228 57.59291 
L 210.591485 62.745925 
L 212.224742 57.554575 
L 213.857999 59.18456 
L 217.124513 59.26519 
L 218.757771 58.433785 
L 220.391028 59.18456 
L 222.024285 58.334146 
L 225.290799 58.334146 
L 226.924057 59.020826 
L 231.823828 59.020826 
L 233.457085 58.295811 
L 235.090343 58.295811 
L 236.7236 59.020826 
L 238.356857 59.020826 
L 239.990114 52.089006 
L 241.623371 58.384427 
L 248.1564 58.384427 
L 249.789657 57.921503 
L 251.422915 51.672179 
L 253.056172 57.504676 
L 254.689429 57.504676 
L 256.322686 56.381034 
L 257.955943 54.91017 
L 261.222458 54.91017 
L 262.855715 50.063004 
L 264.488972 51.910266 
L 266.122229 51.910266 
L 267.755487 50.683227 
L 269.388744 51.435194 
L 271.022001 51.435194 
L 272.655258 52.16021 
L 274.288515 52.16021 
L 275.921772 51.973528 
L 277.55503 51.973528 
L 280.821544 50.89542 
L 284.088058 51.111685 
L 285.721316 51.07335 
L 287.354573 50.79929 
L 288.98783 50.286468 
L 290.621087 50.80361 
L 292.254344 50.170405 
L 293.887602 50.714453 
L 295.520859 50.170405 
L 298.787373 50.170405 
L 300.42063 49.724534 
L 302.053888 48.563322 
L 303.687145 49.908561 
L 306.953659 49.908561 
L 308.586916 49.460508 
L 310.220174 49.85324 
L 320.019717 49.908561 
L 321.652974 50.137897 
L 323.286231 49.95387 
L 324.919488 50.655938 
L 328.186003 50.655938 
L 329.81926 49.957469 
L 331.452517 50.137897 
L 333.085774 50.137897 
L 334.719032 49.957469 
L 336.352289 50.944487 
L 337.985546 50.501315 
L 339.618803 50.944487 
L 344.518575 51.123384 
L 346.151832 50.579043 
L 347.785089 51.123384 
L 349.418346 51.070088 
L 351.051603 51.241696 
L 354.318118 51.241696 
L 355.951375 51.070088 
L 362.484404 51.123384 
L 364.117661 51.64363 
L 365.750918 51.195577 
L 367.384175 51.195577 
L 369.017433 50.750201 
L 370.65069 50.750201 
L 372.283947 51.195577 
L 373.917204 50.20586 
L 377.183719 51.195577 
L 378.816976 50.651236 
L 382.08349 50.651236 
L 383.716747 51.195577 
L 386.983262 51.195577 
L 388.616519 50.20586 
L 390.249776 50.651236 
L 391.883033 50.20586 
L 393.516291 50.651236 
L 400.049319 50.651236 
L 401.682577 50.20586 
L 403.315834 50.20586 
L 404.949091 50.651236 
L 404.949091 50.651236 
" clip-path="url(#p9e31555939)" style="fill: none; stroke: #d62728; stroke-width: 0.7; stroke-linecap: square"/>
   </g>
   <g id="patch_3">
    <path d="M 63.68 168.28 
L 63.68 10.8 
" style="fill: none; stroke: #000000; stroke-width: 0.8; stroke-linejoin: miter; stroke-linecap: square"/>
   </g>
   <g id="patch_4">
    <path d="M 421.2 168.28 
L 421.2 10.8 
" style="fill: none; stroke: #000000; stroke-width: 0.8; stroke-linejoin: miter; stroke-linecap: square"/>
   </g>
   <g id="patch_5">
    <path d="M 63.68 168.28 
L 421.2 168.28 
" style="fill: none; stroke: #000000; stroke-width: 0.8; stroke-linejoin: miter; stroke-linecap: square"/>
   </g>
   <g id="patch_6">
    <path d="M 63.68 10.8 
L 421.2 10.8 
" style="fill: none; stroke: #000000; stroke-width: 0.8; stroke-linejoin: miter; stroke-linecap: square"/>
   </g>
   <g id="legend_1">
    <g id="patch_7">
     <path d="M 116.6275 37.366875 
L 368.2525 37.366875 
Q 370.6525 37.366875 370.6525 34.966875 
L 370.6525 19.2 
Q 370.6525 16.8 368.2525 16.8 
L 116.6275 16.8 
Q 114.2275 16.8 114.2275 19.2 
L 114.2275 34.966875 
Q 114.2275 37.366875 116.6275 37.366875 
z
" style="fill: #ffffff; opacity: 0.8; stroke: #cccccc; stroke-linejoin: miter"/>
    </g>
    <g id="line2d_13">
     <path d="M 119.0275 25.8 
L 131.0275 25.8 
L 143.0275 25.8 
" style="fill: none; stroke: #003f5c; stroke-width: 0.7; stroke-linecap: square"/>
    </g>
    <g id="text_12">
     <!-- 13Bus -->
     <g transform="translate(152.6275 30) scale(0.12 -0.12)">
      <defs>
       <path id="TimesNewRomanPSMT-33" d="M 325 3431 
Q 506 3859 782 4092 
Q 1059 4325 1472 4325 
Q 1981 4325 2253 3994 
Q 2459 3747 2459 3466 
Q 2459 3003 1878 2509 
Q 2269 2356 2469 2072 
Q 2669 1788 2669 1403 
Q 2669 853 2319 450 
Q 1863 -75 997 -75 
Q 569 -75 414 31 
Q 259 138 259 259 
Q 259 350 332 419 
Q 406 488 509 488 
Q 588 488 669 463 
Q 722 447 909 348 
Q 1097 250 1169 231 
Q 1284 197 1416 197 
Q 1734 197 1970 444 
Q 2206 691 2206 1028 
Q 2206 1275 2097 1509 
Q 2016 1684 1919 1775 
Q 1784 1900 1550 2001 
Q 1316 2103 1072 2103 
L 972 2103 
L 972 2197 
Q 1219 2228 1467 2375 
Q 1716 2522 1828 2728 
Q 1941 2934 1941 3181 
Q 1941 3503 1739 3701 
Q 1538 3900 1238 3900 
Q 753 3900 428 3381 
L 325 3431 
z
" transform="scale(0.015625)"/>
       <path id="TimesNewRomanPSMT-42" d="M 2956 2163 
Q 3397 2069 3616 1863 
Q 3919 1575 3919 1159 
Q 3919 844 3719 555 
Q 3519 266 3170 133 
Q 2822 0 2106 0 
L 106 0 
L 106 116 
L 266 116 
Q 531 116 647 284 
Q 719 394 719 750 
L 719 3488 
Q 719 3881 628 3984 
Q 506 4122 266 4122 
L 106 4122 
L 106 4238 
L 1938 4238 
Q 2450 4238 2759 4163 
Q 3228 4050 3475 3764 
Q 3722 3478 3722 3106 
Q 3722 2788 3528 2536 
Q 3334 2284 2956 2163 
z
M 1319 2331 
Q 1434 2309 1582 2298 
Q 1731 2288 1909 2288 
Q 2366 2288 2595 2386 
Q 2825 2484 2947 2687 
Q 3069 2891 3069 3131 
Q 3069 3503 2766 3765 
Q 2463 4028 1881 4028 
Q 1569 4028 1319 3959 
L 1319 2331 
z
M 1319 306 
Q 1681 222 2034 222 
Q 2600 222 2897 476 
Q 3194 731 3194 1106 
Q 3194 1353 3059 1581 
Q 2925 1809 2622 1940 
Q 2319 2072 1872 2072 
Q 1678 2072 1540 2065 
Q 1403 2059 1319 2044 
L 1319 306 
z
" transform="scale(0.015625)"/>
      </defs>
      <use xlink:href="#TimesNewRomanPSMT-31"/>
      <use xlink:href="#TimesNewRomanPSMT-33" x="50"/>
      <use xlink:href="#TimesNewRomanPSMT-42" x="100"/>
      <use xlink:href="#TimesNewRomanPSMT-75" x="166.699219"/>
      <use xlink:href="#TimesNewRomanPSMT-73" x="216.699219"/>
     </g>
    </g>
    <g id="line2d_14">
     <path d="M 207.3025 25.8 
L 219.3025 25.8 
L 231.3025 25.8 
" style="fill: none; stroke: #2f4b7c; stroke-width: 0.7; stroke-linecap: square"/>
    </g>
    <g id="text_13">
     <!-- 34Bus -->
     <g transform="translate(240.9025 30) scale(0.12 -0.12)">
      <use xlink:href="#TimesNewRomanPSMT-33"/>
      <use xlink:href="#TimesNewRomanPSMT-34" x="50"/>
      <use xlink:href="#TimesNewRomanPSMT-42" x="100"/>
      <use xlink:href="#TimesNewRomanPSMT-75" x="166.699219"/>
      <use xlink:href="#TimesNewRomanPSMT-73" x="216.699219"/>
     </g>
    </g>
    <g id="line2d_15">
     <path d="M 295.5775 25.8 
L 307.5775 25.8 
L 319.5775 25.8 
" style="fill: none; stroke: #d62728; stroke-width: 0.7; stroke-linecap: square"/>
    </g>
    <g id="text_14">
     <!-- 123Bus -->
     <g transform="translate(329.1775 30) scale(0.12 -0.12)">
      <use xlink:href="#TimesNewRomanPSMT-31"/>
      <use xlink:href="#TimesNewRomanPSMT-32" x="50"/>
      <use xlink:href="#TimesNewRomanPSMT-33" x="100"/>
      <use xlink:href="#TimesNewRomanPSMT-42" x="150"/>
      <use xlink:href="#TimesNewRomanPSMT-75" x="216.699219"/>
      <use xlink:href="#TimesNewRomanPSMT-73" x="266.699219"/>
     </g>
    </g>
   </g>
  </g>
 </g>
 <defs>
  <clipPath id="p9e31555939">
   <rect x="63.68" y="10.8" width="357.52" height="157.48"/>
  </clipPath>
 </defs>
</svg>
